<?xml version="1.0" standalone="no"?>
<!DOCTYPE svg PUBLIC "-//W3C//DTD SVG 20010904//EN"
 "http://www.w3.org/TR/2001/REC-SVG-20010904/DTD/svg10.dtd">
<svg version="1.0" xmlns="http://www.w3.org/2000/svg"
 width="1962.000000pt" height="1306.000000pt" viewBox="0 0 1962.000000 1306.000000"
 preserveAspectRatio="xMidYMid meet">

<g transform="translate(0.000000,1306.000000) scale(0.100000,-0.100000)"
fill="#000000" stroke="none">
<path d="M1420 12797 c-55 -17 -61 -21 -40 -26 20 -6 26 -14 28 -44 l3 -36
-44 1 c-90 1 -146 -58 -154 -166 -4 -50 -1 -70 15 -102 25 -49 37 -60 79 -68
33 -8 87 13 96 36 3 7 6 3 6 -9 1 -22 5 -23 69 -23 58 1 65 2 50 14 -16 12
-18 35 -18 230 0 167 -3 216 -12 215 -7 0 -42 -10 -78 -22z m-15 -257 l0 -125
-27 -3 c-43 -5 -63 36 -63 128 0 92 20 133 63 128 l27 -3 0 -125z"/>
<path d="M1580 12800 c-23 -23 -25 -40 -7 -62 21 -28 54 -31 76 -9 12 12 21
28 21 36 0 19 -36 55 -55 55 -8 0 -24 -9 -35 -20z"/>
<path d="M423 12789 c15 -9 17 -30 17 -206 0 -175 -2 -197 -17 -209 -16 -12
-12 -13 32 -13 44 0 48 1 32 13 -16 12 -17 30 -15 177 l3 164 74 -178 c41 -97
78 -174 82 -170 4 5 41 89 83 188 l75 180 1 -174 c0 -154 -2 -175 -17 -187
-15 -11 -6 -13 67 -13 73 0 82 2 68 13 -16 12 -18 34 -18 209 0 176 2 197 18
206 13 8 1 10 -50 11 l-66 0 -61 -142 -60 -143 -15 35 c-8 19 -35 82 -59 140
l-45 105 -74 2 c-54 2 -69 0 -55 -8z"/>
<path d="M3186 12731 c-64 -43 -84 -122 -48 -190 34 -63 122 -89 186 -56 29
15 30 15 68 -22 45 -44 52 -33 7 13 l-32 33 17 41 c20 51 20 83 0 126 -33 68
-134 97 -198 55z m155 -27 c75 -72 51 -180 -49 -215 -65 -23 -149 34 -158 107
-14 114 125 187 207 108z"/>
<path d="M1021 12687 c-85 -29 -126 -153 -83 -249 23 -53 51 -75 107 -83 63
-9 123 36 141 108 l6 28 -30 -31 c-61 -60 -162 -17 -162 69 0 20 6 21 95 21
l95 0 0 28 c0 32 -31 87 -57 100 -33 17 -78 20 -112 9z m78 -48 c21 -62 17
-69 -44 -69 -62 0 -67 8 -39 66 13 27 22 34 44 34 22 0 30 -6 39 -31z"/>
<path d="M2209 12688 c-13 -5 -30 -16 -36 -25 -12 -15 -13 -15 -13 5 0 26 -10
27 -79 6 -45 -13 -50 -17 -37 -27 13 -10 16 -38 18 -147 l3 -135 65 -3 c49 -1
61 1 48 8 -16 10 -18 27 -18 133 0 127 6 147 42 147 29 0 38 -41 38 -171 l0
-119 62 0 c59 0 61 1 44 19 -25 27 -20 248 7 265 12 8 22 8 35 0 15 -10 17
-30 20 -148 l3 -136 66 0 c60 0 65 1 47 14 -17 13 -19 29 -22 144 -3 112 -6
133 -23 151 -31 33 -91 31 -129 -4 l-25 -23 -17 23 c-19 25 -64 36 -99 23z"/>
<path d="M1585 12673 c-44 -13 -48 -16 -32 -28 15 -10 17 -31 17 -149 l0 -136
68 0 c58 1 65 2 50 14 -16 12 -18 32 -18 165 0 171 6 162 -85 134z"/>
<path d="M1742 12672 c-49 -16 -51 -18 -32 -30 18 -11 20 -22 20 -121 0 -121
13 -154 69 -166 32 -7 91 17 92 38 0 6 4 2 9 -10 8 -20 16 -23 71 -23 60 0 61
1 46 18 -14 16 -17 43 -17 165 0 161 2 156 -61 136 -19 -6 -40 -13 -48 -15
-11 -4 -12 -7 -3 -16 8 -8 12 -51 12 -120 0 -97 -2 -108 -20 -118 -15 -8 -24
-6 -40 10 -18 18 -20 33 -20 145 0 140 5 133 -78 107z"/>
<path d="M3738 12659 c-21 -12 -24 -54 -5 -66 6 -4 28 -13 47 -18 28 -9 35
-16 35 -35 0 -21 -5 -26 -34 -28 -18 -2 -38 1 -44 7 -6 6 -16 11 -22 11 -20
-1 38 -40 59 -40 30 0 66 27 66 50 0 21 -35 50 -62 50 -22 0 -48 27 -42 44 8
21 39 26 68 10 14 -7 26 -9 26 -4 0 25 -61 37 -92 19z"/>
<path d="M4360 12580 c0 -53 4 -90 10 -90 6 0 10 22 10 50 0 37 4 52 18 59 28
15 43 -2 52 -60 l8 -54 -1 59 c-2 68 -21 91 -57 68 -19 -11 -20 -10 -20 23 0
19 -4 35 -10 35 -6 0 -10 -37 -10 -90z"/>
<path d="M3887 12602 c-48 -53 21 -150 71 -100 21 21 13 29 -12 13 -21 -14
-25 -14 -46 3 -31 25 -18 42 31 42 31 0 39 4 39 18 0 41 -54 57 -83 24z m63
-7 c18 -21 9 -27 -36 -23 -36 3 -37 4 -20 21 21 21 40 22 56 2z"/>
<path d="M4020 12610 c-8 -5 -11 -12 -7 -16 3 -4 13 -2 20 5 17 13 47 4 47
-14 0 -7 -13 -16 -29 -20 -16 -3 -35 -13 -41 -21 -25 -29 16 -68 49 -47 11 7
24 7 33 2 13 -7 15 -2 10 39 -2 26 -9 55 -14 65 -9 18 -44 22 -68 7z m60 -69
c0 -24 -25 -45 -45 -37 -21 8 -19 43 3 49 34 9 42 7 42 -12z"/>
<path d="M4140 12555 c0 -37 4 -65 10 -65 6 0 10 23 10 51 0 42 3 52 20 56 11
3 20 9 20 14 0 13 -14 11 -28 -3 -9 -9 -12 -9 -12 0 0 7 -4 12 -10 12 -6 0
-10 -28 -10 -65z"/>
<path d="M4236 12598 c-22 -31 -20 -64 4 -88 24 -24 53 -26 75 -4 22 22 11 30
-16 10 -32 -22 -59 -5 -59 39 0 24 6 38 19 45 25 13 27 13 45 -6 14 -13 16
-13 16 -1 0 33 -62 36 -84 5z"/>
<path d="M6660 7941 l0 -271 113 0 c174 0 247 31 304 128 25 42 28 56 28 142
0 105 -16 150 -72 201 -58 55 -88 63 -235 67 l-138 4 0 -271z m277 163 c63
-47 91 -117 79 -198 -15 -97 -77 -146 -192 -154 l-74 -5 0 193 0 192 79 -3
c61 -3 86 -9 108 -25z"/>
<path d="M7990 8165 l0 -45 45 0 45 0 0 45 0 45 -45 0 -45 0 0 -45z"/>
<path d="M8570 7940 l0 -270 45 0 45 0 0 270 0 270 -45 0 -45 0 0 -270z"/>
<path d="M8971 7987 c-46 -122 -92 -243 -102 -269 l-19 -48 48 0 48 0 21 58
20 57 121 3 121 3 22 -61 22 -60 48 0 49 0 -26 68 c-13 37 -59 158 -101 270
l-77 202 -55 0 -56 0 -84 -223z m183 3 c20 -53 36 -99 36 -103 0 -4 -36 -7
-80 -7 -44 0 -80 3 -80 8 0 19 76 210 81 204 3 -4 22 -50 43 -102z"/>
<path d="M9760 8165 l0 -45 45 0 45 0 0 45 0 45 -45 0 -45 0 0 -45z"/>
<path d="M9940 7940 l0 -270 45 0 45 0 0 270 0 270 -45 0 -45 0 0 -270z"/>
<path d="M7238 8050 c-34 -18 -68 -63 -68 -88 0 -5 16 -12 36 -15 30 -5 39 -2
59 21 38 44 130 29 123 -22 -2 -16 -15 -23 -58 -31 -91 -19 -128 -35 -156 -68
-22 -26 -25 -38 -21 -75 11 -95 118 -137 220 -85 24 12 30 12 49 -2 13 -8 37
-15 55 -15 31 0 33 2 33 34 0 20 -6 36 -14 39 -11 4 -15 34 -18 131 l-3 126
-32 32 c-30 29 -39 33 -100 35 -53 3 -76 -1 -105 -17z m152 -229 c0 -31 -6
-44 -26 -60 -30 -23 -93 -28 -112 -9 -16 16 -15 53 1 66 10 9 102 38 130 41 4
1 7 -17 7 -38z"/>
<path d="M7570 7870 l0 -200 45 0 45 0 0 125 c0 134 8 166 47 184 35 16 60 14
83 -9 18 -18 20 -33 20 -160 l0 -140 45 0 45 0 0 158 c0 138 -2 160 -19 186
-11 16 -30 35 -43 42 -35 20 -108 17 -145 -6 -33 -20 -33 -20 -33 0 0 17 -7
20 -45 20 l-45 0 0 -200z"/>
<path d="M7990 7870 l0 -200 45 0 45 0 0 200 0 200 -45 0 -45 0 0 -200z"/>
<path d="M8235 8046 c-61 -37 -90 -95 -90 -183 0 -63 3 -76 30 -114 42 -60 87
-84 155 -83 30 0 69 8 86 17 31 16 84 71 84 86 0 4 -16 12 -35 18 -32 10 -38
9 -64 -18 -47 -46 -121 -36 -154 21 -35 58 -31 60 119 60 l136 0 -4 60 c-5 67
-24 101 -78 138 -47 31 -130 31 -185 -2z m158 -77 c34 -42 24 -49 -74 -49
l-90 0 18 30 c31 52 109 63 146 19z"/>
<path d="M9340 8061 c0 -5 31 -94 69 -198 l68 -188 48 0 47 0 69 188 c38 104
69 193 69 198 0 5 -19 9 -43 9 l-43 0 -43 -132 c-24 -73 -47 -137 -51 -141 -4
-5 -29 55 -55 132 l-47 141 -44 0 c-24 0 -44 -4 -44 -9z"/>
<path d="M9760 7870 l0 -200 45 0 45 0 0 200 0 200 -45 0 -45 0 0 -200z"/>
<path d="M10172 8050 c-32 -20 -75 -77 -67 -91 3 -3 19 -9 37 -13 27 -5 35 -2
53 20 28 36 89 38 117 5 10 -13 17 -29 15 -34 -2 -6 -37 -18 -78 -27 -86 -19
-134 -42 -150 -72 -17 -31 -14 -90 5 -120 35 -53 136 -68 200 -30 33 19 34 19
50 1 10 -13 29 -19 56 -19 39 0 40 1 40 35 0 23 -5 35 -14 35 -22 0 -26 23
-26 136 0 118 -12 154 -60 179 -43 22 -137 20 -178 -5z m155 -232 c-7 -52 -36
-78 -86 -78 -59 0 -83 33 -53 70 15 18 89 45 136 49 5 1 6 -18 3 -41z"/>
<path d="M18431 7996 c-15 -17 1 -56 23 -56 23 0 41 30 29 48 -14 23 -37 26
-52 8z"/>
<path d="M18530 7991 c-7 -15 -6 -24 6 -36 19 -18 33 -16 48 7 7 12 6 21 -3
32 -18 22 -38 20 -51 -3z"/>
<path d="M18643 8003 c-19 -7 -16 -50 4 -57 24 -10 51 20 37 41 -12 19 -23 24
-41 16z"/>
<path d="M6630 6560 c0 -53 4 -90 10 -90 6 0 10 18 10 40 l0 40 50 0 50 0 0
-40 c0 -22 5 -40 10 -40 6 0 10 37 10 90 0 53 -4 90 -10 90 -5 0 -10 -18 -10
-40 l0 -40 -50 0 -50 0 0 40 c0 22 -4 40 -10 40 -6 0 -10 -37 -10 -90z"/>
<path d="M7890 6560 l0 -90 55 0 c30 0 55 5 55 10 0 6 -20 10 -45 10 l-45 0 0
80 c0 47 -4 80 -10 80 -6 0 -10 -37 -10 -90z"/>
<path d="M9039 6623 c-47 -122 -57 -153 -49 -153 5 0 12 11 16 25 5 22 12 25
50 25 38 0 46 -4 56 -25 22 -48 28 -25 7 28 -12 28 -27 67 -33 86 -16 45 -33
50 -47 14z m39 -36 c16 -46 16 -47 -18 -47 -33 0 -35 3 -19 49 14 40 22 39 37
-2z"/>
<path d="M9170 6560 c0 -53 4 -90 10 -90 6 0 10 5 10 12 0 9 3 9 12 0 31 -31
78 3 78 56 0 50 -47 81 -78 50 -9 -9 -12 -4 -12 25 0 20 -4 37 -10 37 -6 0
-10 -37 -10 -90z m85 10 c34 -38 -9 -106 -50 -76 -31 22 -16 96 20 96 6 0 20
-9 30 -20z"/>
<path d="M8210 6621 c0 -11 -6 -22 -12 -24 -10 -4 -10 -6 0 -6 8 -1 12 -18 12
-49 0 -26 5 -53 12 -60 15 -15 38 -16 38 -2 0 6 -7 10 -15 10 -23 0 -21 97 3
103 16 4 16 5 0 6 -11 1 -18 9 -18 21 0 11 -4 20 -10 20 -5 0 -10 -9 -10 -19z"/>
<path d="M9611 6623 c0 -13 -6 -23 -12 -23 -8 0 -8 -4 -1 -13 6 -7 12 -35 14
-62 2 -38 7 -51 21 -53 9 -2 17 1 17 7 0 6 -7 11 -15 11 -23 0 -21 86 3 99 15
9 16 10 0 11 -9 0 -19 10 -21 23 l-4 22 -2 -22z"/>
<path d="M6819 6584 c-20 -24 -16 -84 6 -100 44 -32 95 -3 95 54 0 17 -7 38
-16 46 -20 21 -68 20 -85 0z m81 -39 c0 -39 -11 -55 -36 -55 -41 0 -52 58 -16
87 21 17 52 -2 52 -32z"/>
<path d="M6950 6534 c0 -49 3 -64 14 -64 11 0 16 15 18 53 3 45 6 52 26 55 21
3 22 0 22 -52 0 -42 4 -56 14 -56 11 0 16 15 18 53 3 45 6 52 26 55 21 3 22 0
22 -52 0 -43 3 -56 15 -56 18 0 21 63 5 104 -10 27 -52 37 -65 16 -5 -7 -11
-8 -19 -1 -6 5 -31 10 -54 9 l-42 0 0 -64z"/>
<path d="M7186 6584 c-9 -8 -16 -30 -16 -48 0 -56 58 -87 95 -50 19 20 12 32
-9 15 -20 -17 -60 -10 -64 12 -3 14 4 17 42 17 39 0 46 3 46 19 0 27 -26 51
-55 51 -13 0 -31 -7 -39 -16z m74 -24 c0 -6 -16 -10 -35 -10 -38 0 -46 13 -18
29 19 10 53 -2 53 -19z"/>
<path d="M8033 6535 c0 -38 2 -53 4 -32 2 20 2 52 0 70 -2 17 -4 1 -4 -38z"/>
<path d="M8090 6585 c-18 -22 -5 -45 30 -51 38 -8 47 -21 27 -41 -12 -12 -19
-13 -37 -3 -25 13 -42 4 -20 -10 22 -14 56 -12 70 5 19 23 7 49 -28 59 -33 9
-43 32 -18 42 8 3 25 0 38 -7 21 -11 22 -11 9 4 -17 21 -54 22 -71 2z"/>
<path d="M8300 6585 c-18 -22 -5 -45 30 -51 38 -8 47 -21 27 -41 -12 -12 -19
-13 -37 -3 -25 13 -42 4 -20 -10 22 -14 56 -12 70 5 19 23 7 49 -28 59 -33 9
-43 32 -18 42 8 3 25 0 38 -7 21 -11 22 -11 9 4 -17 21 -54 22 -71 2z"/>
<path d="M9326 6578 c-9 -12 -16 -33 -16 -45 0 -28 33 -63 58 -63 47 0 74 89
36 117 -27 20 -61 16 -78 -9z m68 -4 c9 -8 16 -26 16 -39 0 -21 -23 -55 -36
-55 -24 0 -44 25 -44 53 0 52 33 73 64 41z"/>
<path d="M9464 6546 c1 -68 20 -91 56 -68 12 7 20 8 20 2 0 -5 5 -10 10 -10 6
0 10 28 10 65 0 78 -18 88 -22 13 -3 -49 -5 -53 -30 -56 -24 -3 -28 1 -32 30
-3 18 -7 44 -10 58 -2 14 -3 -2 -2 -34z"/>
<path d="M6778 6093 c94 -2 250 -2 345 0 94 1 17 3 -173 3 -190 0 -267 -2
-172 -3z"/>
<path d="M6813 5006 c10 -25 -70 -86 -112 -86 -28 0 -26 -21 4 -50 l25 -24
-32 -35 -33 -36 36 33 35 32 24 -25 c32 -34 50 -32 50 5 0 38 63 112 88 103 9
-3 -5 17 -33 46 -52 54 -61 60 -52 37z m42 -46 c17 -19 17 -21 -19 -60 -21
-23 -36 -50 -36 -65 0 -14 -3 -25 -7 -25 -10 0 -93 82 -93 92 0 4 9 8 20 8 11
0 37 16 58 35 43 40 53 42 77 15z"/>
<path d="M7130 4881 c0 -47 4 -81 10 -81 6 0 10 15 10 33 0 31 3 34 42 43 85
19 77 77 -11 82 l-51 3 0 -80z m95 39 c0 -22 -5 -25 -37 -28 -36 -3 -38 -2
-38 28 0 30 2 31 38 28 32 -3 37 -6 37 -28z"/>
<path d="M7810 4935 c0 -22 -3 -24 -30 -19 -41 9 -60 -10 -60 -57 0 -46 28
-68 66 -51 17 8 24 8 28 -1 2 -7 5 25 5 71 1 45 -1 82 -4 82 -3 0 -5 -11 -5
-25z m-10 -44 c5 -11 10 -26 10 -35 0 -16 -26 -46 -40 -46 -16 0 -40 32 -40
54 0 44 50 63 70 27z"/>
<path d="M7283 4860 c0 -36 2 -50 4 -32 2 17 2 47 0 65 -2 17 -4 3 -4 -33z"/>
<path d="M7330 4858 c0 -32 4 -58 10 -58 6 0 10 20 10 44 0 86 56 85 63 -2 3
-36 4 -33 3 13 l-1 60 -42 1 -43 1 0 -59z"/>
<path d="M7472 4855 c1 -55 2 -56 5 -13 4 50 21 72 47 62 12 -4 16 -19 16 -55
0 -27 5 -49 10 -49 15 0 12 96 -3 109 -7 6 -28 9 -45 8 l-32 -2 2 -60z"/>
<path d="M7607 4902 c-22 -24 -21 -54 1 -82 14 -18 25 -22 45 -16 15 3 27 11
27 17 0 6 -8 5 -22 -2 -19 -10 -24 -8 -41 12 l-19 24 46 3 c48 3 53 10 36 43
-13 24 -52 25 -73 1z m63 -12 c10 -18 8 -20 -25 -20 -22 0 -35 5 -35 13 0 33
44 37 60 7z"/>
<path d="M6715 4328 c-23 -13 -75 -59 -75 -67 0 -3 25 -7 55 -9 45 -2 56 1 65
17 5 11 19 23 30 26 25 8 70 -19 70 -40 0 -11 12 -15 46 -15 l45 0 -17 29
c-26 44 -82 71 -145 71 -30 0 -63 -6 -74 -12z"/>
<path d="M6780 4270 c-11 -11 -20 -27 -20 -35 0 -11 -17 -15 -72 -18 l-73 -3
73 -2 c40 -1 72 -6 72 -12 0 -5 -6 -10 -13 -10 -8 0 -32 -17 -55 -38 -67 -62
-56 -110 31 -147 51 -21 95 -19 147 8 51 25 57 41 39 104 -9 35 -19 47 -40 55
-24 8 -27 14 -22 39 6 29 -18 79 -37 79 -6 0 -19 -9 -30 -20z m45 -10 c4 -6
-5 -10 -20 -10 -15 0 -24 4 -20 10 3 6 12 10 20 10 8 0 17 -4 20 -10z m-10
-32 c3 -3 -6 -8 -20 -10 -15 -3 -25 -1 -25 7 0 11 34 14 45 3z m-4 -46 c-7 -2
-18 1 -23 6 -8 8 -4 9 13 5 13 -4 18 -8 10 -11z"/>
<path d="M7130 4166 l0 -86 35 0 c70 0 110 41 98 103 -7 38 -36 59 -88 64
l-45 6 0 -87z m92 47 c24 -28 29 -53 16 -76 -15 -29 -27 -37 -60 -37 -28 0
-28 1 -28 65 0 65 0 65 28 65 16 0 36 -8 44 -17z"/>
<path d="M7550 4235 c0 -8 5 -15 10 -15 6 0 10 7 10 15 0 8 -4 15 -10 15 -5 0
-10 -7 -10 -15z"/>
<path d="M7730 4165 c0 -50 4 -85 10 -85 6 0 10 35 10 85 0 50 -4 85 -10 85
-6 0 -10 -35 -10 -85z"/>
<path d="M7884 4233 c-4 -10 -18 -45 -30 -77 -13 -33 -24 -63 -24 -68 0 -16
15 -7 25 15 8 17 18 22 45 22 27 0 37 -5 45 -22 5 -13 15 -23 21 -23 15 0 -47
162 -64 168 -7 2 -15 -5 -18 -15z m35 -54 c6 -18 11 -34 11 -35 0 -2 -14 -4
-31 -4 -26 0 -30 3 -24 18 4 9 10 25 12 35 8 26 20 21 32 -14z"/>
<path d="M8110 4235 c0 -8 5 -15 10 -15 6 0 10 7 10 15 0 8 -4 15 -10 15 -5 0
-10 -7 -10 -15z"/>
<path d="M8160 4165 c0 -50 4 -85 10 -85 6 0 10 35 10 85 0 50 -4 85 -10 85
-6 0 -10 -35 -10 -85z"/>
<path d="M8695 4225 c-47 -46 -18 -145 41 -145 33 0 64 17 64 35 0 19 -16 19
-24 0 -7 -20 -50 -19 -70 1 -22 21 -20 77 2 97 23 21 41 21 64 0 25 -22 36 -8
13 17 -24 27 -61 25 -90 -5z"/>
<path d="M9050 4221 c0 -29 -2 -30 -30 -25 -40 9 -60 -10 -60 -56 0 -47 15
-60 68 -57 l42 1 0 78 c0 42 -4 80 -10 83 -6 4 -10 -6 -10 -24z m-16 -47 c19
-19 20 -35 3 -58 -20 -27 -51 -17 -55 17 -3 27 12 57 29 57 4 0 15 -7 23 -16z"/>
<path d="M9245 4225 c-31 -30 -33 -82 -4 -119 22 -28 66 -35 87 -14 9 9 12 9
12 0 0 -7 5 -12 10 -12 6 0 10 20 10 45 0 43 -1 45 -29 45 -17 0 -33 -4 -36
-10 -4 -6 5 -10 19 -10 28 0 34 -18 14 -38 -31 -31 -88 3 -88 53 0 51 66 88
88 49 5 -9 15 -15 22 -12 22 7 -26 48 -55 48 -14 0 -37 -11 -50 -25z"/>
<path d="M9400 4165 c0 -50 4 -85 10 -85 6 0 10 16 10 35 0 32 2 35 30 35 29
0 70 29 70 50 0 24 -41 50 -80 50 l-40 0 0 -85z m90 50 c18 -21 -4 -45 -41
-45 -26 0 -29 4 -29 30 0 26 3 30 29 30 16 0 34 -7 41 -15z"/>
<path d="M9530 4240 c0 -5 11 -10 25 -10 24 0 25 -2 25 -75 0 -96 18 -98 22
-2 3 70 4 72 31 75 53 6 26 22 -38 22 -37 0 -65 -4 -65 -10z"/>
<path d="M6903 4213 c32 -3 47 -9 47 -18 0 -8 4 -16 9 -19 4 -3 6 6 3 19 -4
23 -8 25 -56 23 l-51 -2 48 -3z"/>
<path d="M7299 4183 c-12 -15 -12 -16 6 -9 22 8 25 9 43 7 24 -2 12 -20 -22
-31 -39 -12 -48 -26 -34 -52 6 -13 20 -17 52 -16 l44 2 -5 36 c-10 76 -12 80
-42 80 -16 0 -35 -8 -42 -17z m61 -58 c0 -22 -35 -38 -49 -22 -8 10 -7 17 1
25 17 17 48 15 48 -3z"/>
<path d="M7420 4138 c0 -32 4 -58 10 -58 6 0 10 20 10 44 0 25 6 48 14 55 22
18 46 -13 46 -60 0 -21 5 -39 10 -39 13 0 13 61 0 94 -8 22 -15 26 -50 24
l-40 -1 0 -59z"/>
<path d="M7550 4140 c0 -33 4 -60 10 -60 6 0 10 27 10 60 0 33 -4 60 -10 60
-6 0 -10 -27 -10 -60z"/>
<path d="M7610 4181 c-25 -48 -1 -101 44 -101 27 0 53 25 36 35 -5 3 -10 1
-10 -5 0 -19 -54 -7 -58 13 -3 14 4 17 37 17 33 0 41 4 41 18 0 42 -70 60 -90
23z m54 3 c28 -11 18 -34 -14 -34 -32 0 -37 9 -18 28 14 14 12 14 32 6z"/>
<path d="M7980 4196 c0 -16 44 -116 51 -116 9 0 35 56 45 97 11 44 -13 23 -26
-23 -14 -50 -22 -48 -40 9 -6 20 -16 37 -21 37 -5 0 -9 -2 -9 -4z"/>
<path d="M8110 4140 c0 -33 4 -60 10 -60 6 0 10 27 10 60 0 33 -4 60 -10 60
-6 0 -10 -27 -10 -60z"/>
<path d="M8225 4189 c-11 -16 1 -22 23 -10 15 8 23 7 32 -4 10 -11 6 -16 -21
-22 -72 -19 -60 -74 16 -71 l43 2 -6 41 c-7 59 -18 75 -52 75 -16 0 -32 -5
-35 -11z m63 -66 c-2 -11 -14 -19 -31 -21 -29 -4 -35 6 -15 26 19 19 50 15 46
-5z"/>
<path d="M8423 4140 c0 -36 2 -50 4 -32 2 17 2 47 0 65 -2 17 -4 3 -4 -33z"/>
<path d="M8470 4138 c0 -32 4 -58 10 -58 6 0 10 20 10 44 0 86 56 85 63 -2 3
-36 4 -33 3 13 l-1 60 -42 1 -43 1 0 -59z"/>
<path d="M8836 4178 c-9 -12 -16 -29 -16 -38 0 -49 61 -77 94 -44 19 18 21 75
4 92 -20 20 -65 14 -82 -10z m62 0 c18 -18 15 -68 -4 -75 -39 -15 -69 40 -39
71 20 19 27 20 43 4z"/>
<path d="M9106 4178 c-20 -28 -20 -48 0 -76 21 -30 77 -28 82 3 3 16 1 18 -9
8 -18 -18 -56 -16 -63 3 -9 24 -9 24 39 24 46 0 53 7 35 41 -15 27 -64 25 -84
-3z m62 0 c19 -19 14 -28 -18 -28 -41 0 -40 33 1 39 3 1 10 -4 17 -11z"/>
<path d="M15982 3688 c-17 -17 -17 -1879 0 -1896 7 -7 29 -12 49 -12 34 0 38
3 41 28 3 25 7 27 56 30 31 2 52 -1 52 -7 0 -6 -20 -11 -45 -11 -38 0 -45 -3
-45 -20 0 -18 7 -20 55 -20 55 0 55 0 55 31 l0 30 52 -3 c50 -3 53 -5 59 -33
l7 -30 1 33 1 32 55 0 c54 0 55 0 55 -30 0 -16 5 -30 10 -30 6 0 10 14 10 30
0 30 1 30 55 30 30 0 55 -4 55 -10 0 -5 -20 -10 -45 -10 -25 0 -45 -4 -45 -10
0 -5 20 -10 45 -10 29 0 45 -5 46 -12 1 -7 4 1 8 17 6 29 9 30 64 33 35 2 57
-1 57 -8 0 -5 -22 -10 -50 -10 -43 0 -50 -3 -50 -20 0 -11 7 -20 15 -20 8 0
15 5 15 10 0 14 54 12 68 -2 9 -9 12 -5 12 21 l0 32 53 -3 c48 -3 52 -5 55
-30 3 -24 8 -28 33 -28 22 0 29 5 29 20 0 15 -7 20 -25 20 -14 0 -25 5 -25 10
0 6 27 10 60 10 33 0 60 -4 60 -10 0 -5 -11 -10 -25 -10 -18 0 -25 -5 -25 -20
0 -20 7 -20 282 -20 250 0 280 2 262 15 -18 13 -16 14 27 15 26 0 60 -7 75
-15 25 -13 95 -15 454 -14 l425 1 -210 23 c-115 13 -302 33 -415 45 -113 12
-218 25 -235 29 l-30 8 54 27 c47 24 66 28 150 29 53 0 132 -3 175 -7 70 -8
77 -10 61 -22 -14 -11 -15 -14 -4 -18 24 -7 420 -36 496 -36 l72 0 68 58 c84
72 84 72 117 152 24 58 32 67 69 83 23 9 48 17 55 17 6 0 12 5 12 10 0 17 -30
11 -62 -11 -16 -12 -31 -19 -34 -17 -2 3 5 25 16 50 18 41 22 44 50 40 l30 -4
0 194 c0 138 -3 197 -12 206 -9 9 -9 15 0 24 17 17 17 1009 0 1026 -17 17
-2839 17 -2856 0z m1185 -132 l-20 -94 -53 -1 c-43 0 -56 4 -64 19 -31 58 53
153 97 109 7 -7 12 0 17 25 5 25 12 36 25 36 16 0 16 -5 -2 -94z m431 77 c-2
-10 -10 -18 -18 -18 -8 0 -16 8 -18 18 -2 12 3 17 18 17 15 0 20 -5 18 -17z
m-1370 -5 c-3 -7 -23 -14 -46 -16 -23 -2 -42 -7 -42 -12 0 -4 -3 -15 -6 -24
-5 -13 1 -16 30 -16 25 0 36 -4 36 -15 0 -11 -11 -15 -40 -15 -33 0 -40 -3
-40 -19 0 -30 -11 -51 -26 -51 -18 0 -18 13 3 105 l16 75 59 0 c43 0 59 -3 56
-12z m1170 0 c17 -17 15 -49 -4 -76 -11 -16 -25 -22 -54 -22 -37 0 -39 -2 -46
-35 -5 -26 -11 -35 -26 -35 -16 0 -19 5 -14 23 3 12 10 47 16 77 6 30 13 61
15 68 6 16 97 16 113 0z m588 -13 c-4 -10 1 -15 14 -15 11 0 20 -7 20 -15 0
-8 -9 -15 -20 -15 -21 0 -24 -4 -34 -52 -5 -23 -3 -28 14 -28 24 0 27 -25 4
-34 -8 -3 -25 -1 -36 5 -18 10 -20 18 -15 59 4 33 2 50 -6 53 -8 2 -3 13 13
30 27 29 56 36 46 12z m-1706 -27 c0 -9 3 -9 12 0 17 17 40 15 36 -5 -2 -9
-12 -17 -22 -19 -24 -3 -34 -20 -42 -66 -5 -28 -11 -38 -25 -38 -22 0 -22 2
-10 50 5 19 12 47 15 63 6 26 36 39 36 15z m168 0 c29 -29 -5 -78 -55 -78 -13
0 -23 -4 -23 -9 0 -14 23 -19 43 -9 24 12 41 0 26 -18 -6 -8 -27 -14 -45 -14
-65 0 -82 77 -27 120 29 23 63 26 81 8z m156 -3 c26 -26 6 -58 -45 -71 -33 -9
-40 -13 -26 -19 9 -4 24 -4 33 -1 23 9 37 -3 23 -20 -15 -19 -73 -18 -89 1
-50 60 49 164 104 110z m194 3 c9 -9 12 -9 12 0 0 7 7 12 15 12 18 0 18 -10 4
-82 l-11 -56 -54 -1 c-60 0 -68 7 -66 57 2 60 65 105 100 70z m122 0 c0 -9 3
-9 12 0 16 16 43 15 58 -3 19 -23 1 -119 -23 -123 -15 -3 -17 2 -11 52 6 46 4
56 -8 56 -22 0 -38 -23 -45 -65 -5 -34 -26 -55 -39 -42 -6 5 14 115 23 130 7
12 33 8 33 -5z m610 6 c0 -16 -16 -34 -31 -34 -20 0 -33 -22 -43 -72 -4 -18
-13 -28 -25 -28 -17 0 -17 4 -3 68 l15 69 43 0 c24 0 44 -1 44 -3z m57 -7 c-2
-7 -10 -38 -17 -70 -9 -45 -15 -57 -30 -57 -11 0 -18 5 -15 13 2 6 9 38 15 70
9 47 15 57 32 57 12 0 18 -5 15 -13z m58 1 c2 -7 6 -30 10 -52 l6 -38 24 43
c23 44 49 68 60 57 4 -3 -11 -36 -31 -72 -29 -50 -44 -66 -60 -66 -23 0 -25 5
-39 98 -6 35 -4 42 9 42 9 0 18 -6 21 -12z m254 -7 c0 -9 -6 -38 -13 -66 -10
-44 -14 -50 -37 -51 -15 -1 -33 -4 -42 -7 -23 -9 -57 21 -57 49 0 30 25 80 42
87 7 3 34 4 61 4 36 0 47 -4 46 -16z m242 9 c10 -6 19 -17 19 -25 0 -25 -38
-55 -71 -55 -19 0 -28 -4 -23 -11 4 -7 20 -8 41 -4 29 5 34 4 31 -11 -5 -26
-57 -37 -85 -18 -32 21 -31 76 2 109 26 27 54 31 86 15z m-1491 -310 c0 -21
-24 -28 -35 -10 -8 14 3 30 21 30 8 0 14 -9 14 -20z m76 3 c-17 -58 -26 -122
-21 -150 7 -36 -12 -46 -35 -18 -10 12 -9 32 5 100 15 71 21 85 37 85 14 0 18
-5 14 -17z m1324 -108 c30 -61 60 -162 60 -201 0 -12 -7 -27 -15 -34 -33 -27
-16 -35 78 -36 50 -1 179 -5 285 -9 162 -6 192 -10 192 -22 0 -14 -18 -15
-142 -9 -79 4 -192 7 -253 7 -60 0 -126 4 -145 8 -29 6 -38 3 -53 -16 -10 -12
-21 -22 -25 -20 -10 3 -122 -82 -122 -93 0 -6 -5 -10 -10 -10 -6 0 -20 -9 -32
-20 -20 -18 -20 -22 -8 -61 11 -32 11 -52 2 -95 -10 -49 -9 -60 10 -102 11
-26 28 -69 38 -96 l18 -50 49 3 c26 1 67 -5 91 -13 24 -9 103 -20 175 -25 73
-6 197 -15 277 -21 79 -6 146 -13 148 -15 5 -5 -36 -104 -51 -123 -5 -7 -12
-10 -15 -7 -3 3 -11 0 -19 -6 -8 -7 -13 -7 -13 -2 0 6 -19 13 -41 16 -44 6
-51 2 -184 -104 -22 -18 -10 -3 28 33 37 36 67 69 67 73 0 4 -14 5 -31 1 -25
-5 -29 -3 -20 7 18 23 -54 92 -116 110 -34 10 -55 12 -59 6 -3 -6 -12 -8 -19
-5 -7 2 -21 -1 -31 -8 -9 -7 -26 -11 -36 -8 -15 4 -16 7 -6 21 12 14 11 14
-12 0 -29 -19 -58 -21 -148 -13 l-62 6 3 44 c4 49 0 51 -44 29 -28 -15 -30
-15 -39 10 -5 14 -13 37 -16 50 -6 23 -11 20 -102 -62 -59 -54 -97 -95 -98
-109 -1 -12 -10 -34 -19 -47 -9 -14 -12 -27 -8 -30 4 -3 52 -8 106 -12 53 -4
100 -12 103 -17 3 -5 3 -30 -1 -55 -4 -26 -10 -42 -13 -36 -4 6 -55 11 -126
12 -66 1 -123 4 -126 6 -4 2 -66 5 -138 6 l-132 1 0 59 0 59 83 -6 c68 -5 80
-4 70 7 -7 7 -13 19 -13 27 0 9 8 5 20 -10 18 -24 66 -42 82 -32 4 3 3 15 -3
27 -9 19 -2 35 45 105 31 46 56 87 56 91 0 4 -46 48 -103 98 -108 95 -114 104
-148 196 -23 63 -59 112 -90 122 -12 4 -31 0 -47 -10 l-27 -17 25 24 c43 43
117 66 180 58 30 -4 51 -8 46 -9 -14 -2 35 -51 51 -51 7 0 13 -5 13 -12 0 -19
72 -88 92 -88 12 0 18 -8 18 -23 0 -23 3 -23 58 -19 31 2 61 8 66 12 4 5 4 33
-1 64 -6 31 -7 56 -4 56 4 0 25 24 48 54 29 37 40 59 37 74 -7 26 28 62 61 62
29 0 29 -3 11 47 -11 32 -11 43 -1 63 12 22 9 32 -21 92 -19 37 -34 70 -34 73
0 2 30 20 68 39 l67 34 33 -31 c18 -18 46 -59 62 -92z m-1819 105 c21 -12 25
-36 7 -42 -7 -3 -19 1 -26 9 -21 21 -49 15 -71 -13 -23 -30 -27 -74 -9 -92 17
-17 35 -15 59 9 13 13 25 17 30 12 26 -26 -39 -71 -86 -59 -62 16 -70 103 -15
158 30 30 74 37 111 18z m756 -40 c8 0 13 -6 10 -12 -2 -7 -11 -12 -20 -10
-16 3 -22 -11 -29 -63 -2 -15 2 -19 15 -17 25 4 19 -31 -6 -36 -35 -7 -50 18
-43 70 5 36 3 48 -6 48 -8 1 -7 5 5 14 9 7 17 18 17 24 0 19 35 19 38 0 2 -10
10 -18 19 -18z m-627 0 c34 -18 42 -46 26 -84 -32 -77 -126 -74 -126 4 0 43
10 61 44 76 38 16 34 16 56 4z m181 0 c29 -16 26 -84 -6 -115 -25 -26 -59 -33
-71 -14 -9 15 -24 -9 -24 -38 0 -17 -6 -23 -21 -23 -15 0 -19 5 -16 18 3 9 13
52 22 95 16 74 18 79 40 75 13 -3 30 -1 37 3 16 11 16 11 39 -1z m327 -19 c19
-23 7 -72 -24 -98 -62 -56 -129 2 -93 81 21 44 88 54 117 17z m-231 -3 c-4
-13 -9 -43 -13 -66 -6 -40 -26 -63 -41 -49 -4 5 9 83 22 125 3 6 12 12 21 12
12 0 15 -6 11 -22z m1739 -26 c18 -11 27 -68 14 -91 -9 -19 -20 -21 -93 -21
-54 0 -90 5 -102 14 -24 17 -23 75 1 93 19 14 161 18 180 5z m-806 -123 c0
-24 -30 -79 -43 -79 -5 0 -5 5 0 13 26 33 22 42 -21 39 -47 -5 -46 -2 9 27 49
26 55 26 55 0z m-40 -99 c0 -5 -4 -10 -10 -10 -5 0 -10 5 -10 10 0 6 5 10 10
10 6 0 10 -4 10 -10z m115 -50 c-10 -17 -25 -1 -25 28 l0 26 16 -22 c8 -12 12
-27 9 -32z m-125 14 c0 -8 -4 -12 -10 -9 -5 3 -10 10 -10 16 0 5 5 9 10 9 6 0
10 -7 10 -16z m-364 -189 c46 -19 76 -84 82 -184 l5 -74 -31 23 c-21 16 -51
25 -94 29 l-63 6 -8 55 c-4 30 -12 71 -17 90 -10 36 -3 46 45 62 32 10 43 9
81 -7z m1166 -13 c20 -20 1 -24 -104 -23 -120 2 -148 7 -148 28 0 14 17 15
121 11 69 -3 125 -10 131 -16z m-1063 -107 c0 -25 -2 -27 -8 -10 -4 11 -11 34
-15 50 -7 29 -7 29 8 10 8 -11 15 -33 15 -50z m851 0 c0 -15 -43 -12 -48 3 -3
10 4 13 22 10 15 -2 26 -7 26 -13z m245 -36 c110 -6 210 -12 221 -15 18 -3 22
-13 28 -64 10 -85 -12 -117 -62 -91 -9 5 -26 13 -37 17 -19 7 -19 8 3 11 15 3
22 11 22 28 0 13 3 30 6 38 9 23 -19 28 -231 38 -110 6 -204 14 -209 19 -14
14 3 30 32 30 15 0 117 -5 227 -11z m-1209 -135 c24 9 32 -25 39 -173 l8 -144
-23 23 c-18 18 -31 21 -67 18 l-46 -3 6 130 c5 137 13 177 29 153 7 -10 11 -9
20 7 12 19 13 19 16 2 2 -11 9 -16 18 -13z m1114 5 c9 -5 -29 -9 -92 -9 -92 0
-108 2 -108 16 0 13 12 15 93 9 50 -4 99 -11 107 -16z m-1230 -165 c-6 -66
-13 -123 -16 -129 -6 -14 5 186 12 224 13 63 14 21 4 -95z m835 -62 c0 -18
-20 -15 -23 4 -3 10 1 15 10 12 7 -3 13 -10 13 -16z m410 -2 c3 -5 2 -10 -4
-10 -5 0 -13 5 -16 10 -3 6 -2 10 4 10 5 0 13 -4 16 -10z m-45 -32 c0 -5 -9
-3 -20 4 -11 7 -20 16 -20 20 0 5 9 3 20 -4 11 -7 20 -16 20 -20z m-830 12 c0
-5 -5 -10 -11 -10 -5 0 -7 5 -4 10 3 6 8 10 11 10 2 0 4 -4 4 -10z m881 -27
c13 -15 12 -15 -8 -4 -24 12 -29 21 -14 21 5 0 15 -7 22 -17z m76 -37 l15 -31
-31 35 c-32 37 -42 61 -15 39 8 -7 22 -26 31 -43z m-82 4 c3 -5 1 -10 -4 -10
-6 0 -11 5 -11 10 0 6 2 10 4 10 3 0 8 -4 11 -10z m-214 -20 c22 0 39 -5 39
-11 0 -6 -6 -9 -14 -6 -11 4 -16 -7 -21 -45 -4 -28 -10 -46 -14 -40 -3 6 -39
12 -79 13 l-73 2 3 41 c3 40 4 41 48 47 25 3 51 4 58 2 8 -1 31 -3 53 -3z
m-860 -32 c14 -33 5 -48 -27 -48 -21 0 -24 4 -24 38 0 31 4 38 20 38 12 0 24
-11 31 -28z m682 5 c-7 -2 -19 -2 -25 0 -7 3 -2 5 12 5 14 0 19 -2 13 -5z
m-53 -19 c0 -2 -7 -4 -15 -4 -8 0 -15 4 -15 10 0 5 7 7 15 4 8 -4 15 -8 15
-10z m393 -16 c5 -19 5 -19 -13 -3 -10 9 -24 14 -29 10 -6 -3 -16 -3 -23 1 -8
5 -6 10 8 14 28 10 51 1 57 -22z m-113 12 c0 -5 -2 -10 -4 -10 -3 0 -8 5 -11
10 -3 6 -1 10 4 10 6 0 11 -4 11 -10z m-1013 -16 c8 -22 -9 -48 -33 -51 -15
-2 -14 -1 4 7 13 5 22 18 22 31 0 17 -5 20 -25 17 -13 -3 -22 -1 -19 3 9 15
44 10 51 -7z m730 0 c-3 -3 -12 -4 -19 -1 -8 3 -5 6 6 6 11 1 17 -2 13 -5z
m50 0 c-3 -3 -12 -4 -19 -1 -8 3 -5 6 6 6 11 1 17 -2 13 -5z m663 3 c0 -2 -10
-12 -22 -23 l-23 -19 19 23 c18 21 26 27 26 19z m-26 -82 l-69 -66 -148 12
c-81 7 -146 13 -144 15 7 7 120 4 195 -6 l82 -11 72 65 c39 37 73 64 76 61 3
-2 -26 -34 -64 -70z m-397 59 c-3 -3 -12 -4 -19 -1 -8 3 -5 6 6 6 11 1 17 -2
13 -5z m47 -9 c-4 -8 -10 -15 -14 -15 -4 0 -10 7 -14 15 -4 10 1 15 14 15 13
0 18 -5 14 -15z m306 11 c0 -2 -8 -10 -17 -17 -16 -13 -17 -12 -4 4 13 16 21
21 21 13z m-171 -55 c0 -14 -1 -14 -6 -1 -3 8 -10 24 -15 35 -9 20 -9 20 6 1
9 -11 16 -27 15 -35z m341 -16 c-24 -25 -45 -45 -47 -45 -1 0 5 16 14 35 9 19
20 30 23 25 4 -6 14 -2 25 10 10 11 21 20 24 20 3 0 -15 -20 -39 -45z m-820
31 c0 -3 -4 -8 -10 -11 -5 -3 -10 -1 -10 4 0 6 5 11 10 11 6 0 10 -2 10 -4z
m258 -53 c-16 -2 -40 -2 -55 0 -16 2 -3 4 27 4 30 0 43 -2 28 -4z m439 -39
c-3 -3 -12 -4 -19 -1 -8 3 -5 6 6 6 11 1 17 -2 13 -5z"/>
<path d="M17075 3554 c-22 -23 -15 -58 12 -62 28 -4 51 42 32 64 -15 18 -24
18 -44 -2z"/>
<path d="M17316 3594 c-13 -33 -7 -43 22 -35 37 10 45 51 9 51 -14 0 -28 -7
-31 -16z"/>
<path d="M16387 3563 c-14 -13 -6 -24 15 -21 27 4 36 28 11 28 -11 0 -23 -3
-26 -7z"/>
<path d="M16537 3563 c-14 -13 -6 -24 15 -21 27 4 36 28 11 28 -11 0 -23 -3
-26 -7z"/>
<path d="M16745 3554 c-22 -23 -15 -58 12 -62 26 -4 47 29 38 58 -8 24 -28 26
-50 4z"/>
<path d="M17800 3551 c-19 -36 -13 -61 15 -61 18 0 26 7 31 25 12 49 -23 77
-46 36z"/>
<path d="M18083 3563 c-7 -2 -13 -9 -13 -15 0 -14 43 -6 48 10 4 12 -12 15
-35 5z"/>
<path d="M17916 2874 c-4 -14 -5 -28 -3 -31 3 -2 8 8 11 23 4 14 5 28 3 31 -3
2 -8 -8 -11 -23z"/>
<path d="M17861 2774 c0 -11 3 -14 6 -6 3 7 2 16 -1 19 -3 4 -6 -2 -5 -13z"/>
<path d="M17693 2569 c-19 -6 -33 -16 -33 -25 0 -11 6 -14 16 -10 9 3 27 9 40
12 13 3 24 12 24 20 0 16 -2 16 -47 3z"/>
<path d="M17538 2203 c-35 -15 -51 -33 -28 -33 16 0 80 33 80 42 0 10 -7 9
-52 -9z"/>
<path d="M16310 3200 c-21 -21 -23 -29 -14 -54 13 -35 64 -4 64 39 0 31 -26
39 -50 15z"/>
<path d="M16476 3201 c-23 -26 -18 -66 9 -66 27 0 51 50 35 71 -16 19 -23 18
-44 -5z"/>
<path d="M16802 3212 c-21 -7 -34 -52 -21 -68 15 -18 24 -18 43 2 31 31 15 79
-22 66z"/>
<path d="M6630 3415 l0 -155 35 0 35 0 0 60 0 60 60 0 60 0 0 30 0 30 -60 0
-60 0 0 35 0 35 75 0 75 0 0 30 0 30 -110 0 -110 0 0 -155z"/>
<path d="M8190 3520 c0 -47 -11 -63 -25 -40 -8 13 -61 13 -86 0 -26 -15 -49
-62 -49 -105 0 -88 72 -141 141 -105 13 7 19 7 19 0 0 -5 16 -10 35 -10 l35 0
0 155 0 155 -35 0 -35 0 0 -50z m-10 -109 c17 -32 12 -69 -12 -85 -28 -20 -33
-20 -52 0 -19 18 -21 75 -4 92 18 18 56 14 68 -7z"/>
<path d="M8380 3415 l0 -155 35 0 35 0 0 55 0 55 45 0 c80 0 125 36 125 100 0
72 -47 100 -165 100 l-75 0 0 -155z m158 83 c17 -17 15 -55 -4 -62 -9 -3 -31
-6 -50 -6 -33 0 -34 1 -34 40 0 40 0 40 38 40 21 0 43 -5 50 -12z"/>
<path d="M8810 3540 c0 -28 3 -30 35 -30 32 0 35 2 35 30 0 28 -3 30 -35 30
-32 0 -35 -2 -35 -30z"/>
<path d="M9883 3550 c-43 -26 -66 -73 -66 -135 0 -96 55 -155 147 -155 44 0
52 4 90 42 l41 41 -33 14 c-32 13 -35 12 -54 -12 -45 -57 -120 -14 -120 70 0
84 75 127 120 70 19 -24 22 -25 54 -12 l33 14 -41 41 c-38 38 -46 42 -90 42
-31 0 -61 -7 -81 -20z"/>
<path d="M10610 3540 c0 -27 3 -30 30 -30 27 0 30 3 30 30 0 27 -3 30 -30 30
-27 0 -30 -3 -30 -30z"/>
<path d="M10710 3415 l0 -155 35 0 35 0 0 155 0 155 -35 0 -35 0 0 -155z"/>
<path d="M11380 3540 c0 -29 2 -30 45 -30 l45 0 0 -125 0 -125 35 0 35 0 0
125 0 125 50 0 c49 0 50 1 50 30 l0 30 -130 0 -130 0 0 -30z"/>
<path d="M11660 3415 l0 -155 35 0 35 0 0 74 c0 81 16 110 48 89 13 -8 18 -28
20 -87 l3 -76 36 0 35 0 -4 96 c-4 86 -7 99 -27 115 -26 21 -62 24 -92 9 -18
-10 -19 -7 -19 40 l0 50 -35 0 -35 0 0 -155z"/>
<path d="M12220 3415 l0 -155 35 0 35 0 0 60 0 60 60 0 60 0 0 30 0 30 -60 0
-60 0 0 35 0 35 75 0 75 0 0 30 0 30 -110 0 -110 0 0 -155z"/>
<path d="M13832 3554 c-12 -8 -22 -24 -22 -35 0 -11 -7 -22 -15 -25 -17 -7
-21 -64 -5 -64 6 0 10 -35 10 -85 l0 -85 35 0 35 0 0 85 c0 78 2 85 20 85 16
0 20 7 20 30 0 23 -4 30 -20 30 -13 0 -18 5 -14 15 4 8 12 15 20 15 8 0 14 10
14 25 0 21 -5 25 -28 25 -15 0 -38 -7 -50 -16z"/>
<path d="M9370 3521 c0 -16 -6 -31 -15 -35 -19 -7 -20 -56 -1 -56 10 0 15 -19
18 -71 4 -82 18 -99 81 -99 36 0 38 2 35 28 -2 19 -9 28 -25 30 -21 3 -23 9
-23 58 0 47 2 54 20 54 16 0 20 7 20 30 0 23 -4 30 -20 30 -16 0 -20 7 -20 30
0 28 -3 30 -35 30 -32 0 -35 -3 -35 -29z"/>
<path d="M11070 3520 c0 -20 -5 -30 -15 -30 -10 0 -15 -10 -15 -30 0 -20 5
-30 15 -30 12 0 15 -14 15 -63 0 -82 17 -107 71 -107 37 0 39 2 39 30 0 23 -4
30 -20 30 -18 0 -20 7 -20 55 0 48 2 55 20 55 16 0 20 7 20 30 0 23 -4 30 -20
30 -16 0 -20 7 -20 30 0 28 -3 30 -35 30 -32 0 -35 -2 -35 -30z"/>
<path d="M12700 3520 c0 -20 -5 -30 -15 -30 -10 0 -15 -10 -15 -30 0 -20 5
-30 15 -30 12 0 15 -14 15 -69 0 -83 13 -101 71 -101 37 0 39 2 39 30 0 23 -4
30 -20 30 -18 0 -20 7 -20 55 0 48 2 55 20 55 16 0 20 7 20 30 0 23 -4 30 -20
30 -16 0 -20 7 -20 30 0 28 -3 30 -35 30 -32 0 -35 -2 -35 -30z"/>
<path d="M6860 3375 l0 -115 35 0 35 0 0 68 c0 73 10 92 47 92 20 0 23 5 23
35 0 28 -4 35 -19 35 -10 0 -24 -7 -32 -16 -11 -14 -13 -14 -21 0 -5 9 -22 16
-38 16 l-30 0 0 -115z"/>
<path d="M7060 3473 c-50 -35 -66 -77 -49 -136 21 -77 120 -103 181 -48 l33
30 -29 11 c-23 8 -32 8 -46 -5 -21 -19 -44 -19 -64 1 -28 28 -17 34 59 34 73
0 75 1 75 25 0 82 -93 134 -160 88z m74 -39 c33 -13 17 -34 -24 -34 -45 0 -47
2 -24 24 17 18 24 19 48 10z"/>
<path d="M7288 3467 c-60 -51 -66 -121 -14 -173 29 -29 41 -34 79 -34 43 0 97
28 97 51 0 20 -43 26 -70 11 -31 -18 -54 -12 -70 17 -10 20 -8 21 70 21 44 0
80 3 80 8 0 30 -25 85 -47 102 -35 27 -90 26 -125 -3z m90 -39 c21 -21 13 -28
-28 -28 -22 0 -40 4 -40 8 0 14 23 32 40 32 9 0 21 -5 28 -12z"/>
<path d="M7593 3470 c-18 -11 -33 -26 -33 -34 0 -22 49 -30 70 -11 19 17 50
11 50 -10 0 -7 -19 -16 -46 -20 -25 -3 -54 -15 -65 -26 -26 -26 -25 -74 3 -93
27 -19 89 -21 106 -4 9 9 15 9 24 0 7 -7 25 -12 40 -12 23 0 28 4 28 24 0 14
-4 28 -10 31 -5 3 -10 33 -10 66 0 50 -4 64 -25 84 -30 31 -86 33 -132 5z m97
-116 c0 -20 -24 -44 -45 -44 -56 0 -30 47 28 49 9 1 17 -2 17 -5z"/>
<path d="M7800 3375 l0 -115 30 0 30 0 0 68 c0 74 15 106 46 100 17 -3 19 -13
22 -86 l3 -82 34 0 35 0 0 93 c0 85 -2 96 -23 115 -26 24 -57 28 -90 11 -16
-9 -22 -9 -25 0 -2 6 -17 11 -33 11 l-29 0 0 -115z"/>
<path d="M8650 3375 l0 -115 30 0 c30 0 30 0 30 58 0 67 19 102 56 102 21 0
24 5 24 35 0 40 -19 46 -58 19 -20 -14 -22 -14 -22 0 0 11 -10 16 -30 16 l-30
0 0 -115z"/>
<path d="M8817 3483 c-4 -3 -7 -55 -7 -115 l0 -108 35 0 35 0 0 115 0 115 -28
0 c-16 0 -32 -3 -35 -7z"/>
<path d="M8904 3473 c3 -10 21 -61 40 -113 34 -95 34 -95 70 -98 20 -2 36 -1
36 2 0 2 18 54 40 115 l39 111 -33 0 c-33 0 -34 -1 -55 -70 -12 -38 -24 -70
-26 -70 -2 0 -14 32 -26 70 -21 69 -21 70 -56 70 -28 0 -33 -3 -29 -17z"/>
<path d="M9175 3478 c-21 -11 -45 -37 -45 -49 0 -16 52 -19 72 -5 15 11 26 12
40 5 26 -14 15 -25 -30 -33 -80 -12 -116 -72 -72 -116 23 -23 88 -28 108 -8 9
9 15 9 24 0 7 -7 25 -12 40 -12 23 0 28 4 28 24 0 14 -4 28 -10 31 -5 3 -10
35 -10 70 0 57 -3 66 -26 84 -29 23 -86 27 -119 9z m85 -131 c0 -20 -22 -37
-47 -37 -28 0 -32 36 -5 43 34 9 52 7 52 -6z"/>
<path d="M9560 3473 c-50 -35 -66 -77 -49 -136 21 -77 120 -103 181 -48 l33
30 -29 11 c-23 8 -32 8 -46 -5 -21 -19 -44 -19 -64 1 -28 28 -17 34 59 34 73
0 75 1 75 25 0 82 -93 134 -160 88z m74 -39 c33 -13 17 -34 -24 -34 -45 0 -47
2 -24 24 17 18 24 19 48 10z"/>
<path d="M10139 3462 c-26 -23 -33 -38 -37 -80 -4 -49 -2 -54 31 -87 30 -30
42 -35 80 -35 37 0 51 5 76 31 25 25 31 39 31 74 0 56 -14 87 -50 108 -44 26
-94 22 -131 -11z m101 -42 c24 -24 26 -57 4 -88 -17 -24 -43 -29 -62 -10 -17
17 -15 84 4 102 20 21 30 20 54 -4z"/>
<path d="M10350 3334 l0 -155 33 3 c31 3 32 5 37 53 3 31 8 45 13 38 5 -7 26
-13 48 -13 50 0 84 31 93 87 17 96 -61 172 -135 133 -13 -7 -19 -7 -19 0 0 5
-16 10 -35 10 l-35 0 0 -156z m150 77 c17 -32 12 -69 -12 -85 -28 -20 -33 -20
-52 0 -19 18 -21 75 -4 92 18 18 56 14 68 -7z"/>
<path d="M10610 3375 l0 -115 30 0 30 0 0 115 0 115 -30 0 -30 0 0 -115z"/>
<path d="M10849 3462 c-26 -23 -33 -38 -37 -80 -4 -49 -2 -54 31 -87 30 -30
42 -35 80 -35 37 0 51 5 76 31 25 25 31 39 31 74 0 56 -14 87 -50 108 -44 26
-94 22 -131 -11z m101 -42 c24 -24 26 -57 4 -88 -17 -24 -43 -29 -62 -10 -17
17 -15 84 4 102 20 21 30 20 54 -4z"/>
<path d="M11950 3473 c-50 -35 -66 -77 -49 -136 21 -77 120 -103 181 -48 l33
30 -29 11 c-23 8 -32 8 -46 -5 -21 -19 -44 -19 -64 1 -28 28 -17 34 59 34 73
0 75 1 75 25 0 82 -93 134 -160 88z m74 -39 c33 -13 17 -34 -24 -34 -45 0 -47
2 -24 24 17 18 24 19 48 10z"/>
<path d="M12443 3474 c-3 -8 -3 -48 -1 -89 6 -95 24 -125 76 -125 21 0 43 5
50 12 9 9 12 9 12 0 0 -7 14 -12 35 -12 l35 0 0 116 0 115 -32 -3 -33 -3 -5
-80 c-5 -75 -6 -80 -29 -83 -33 -5 -41 12 -41 96 l0 72 -30 0 c-19 0 -33 -6
-37 -16z"/>
<path d="M12840 3401 c0 -74 3 -92 21 -115 22 -28 64 -35 100 -16 13 7 19 7
19 0 0 -5 16 -10 35 -10 l36 0 -3 113 -3 112 -32 3 -33 3 0 -73 c0 -84 -8
-101 -41 -96 -23 3 -24 7 -27 86 l-3 82 -34 0 -35 0 0 -89z"/>
<path d="M13090 3375 l0 -115 30 0 c30 0 30 0 30 58 0 67 19 102 56 102 21 0
24 5 24 35 0 40 -19 46 -58 19 -20 -14 -22 -14 -22 0 0 11 -10 16 -30 16 l-30
0 0 -115z"/>
<path d="M13284 3471 c-62 -38 -69 -127 -14 -183 23 -22 37 -28 73 -28 70 0
130 59 75 73 -13 4 -29 0 -38 -8 -30 -27 -80 -13 -80 22 0 10 20 13 76 13 l77
0 -6 38 c-13 77 -95 115 -163 73z m84 -43 c21 -21 13 -28 -28 -28 -22 0 -40 4
-40 8 0 14 23 32 40 32 9 0 21 -5 28 -12z"/>
<path d="M13600 3475 c-65 -35 -73 -148 -13 -195 34 -27 101 -27 136 0 37 29
52 83 38 131 -20 68 -98 99 -161 64z m98 -85 c9 -61 -31 -98 -69 -64 -25 23
-24 69 2 95 18 18 23 19 42 6 12 -8 23 -24 25 -37z"/>
<path d="M11200 3440 l0 -40 40 0 40 0 0 40 0 40 -40 0 -40 0 0 -40z"/>
<path d="M11207 3333 c-4 -3 -7 -21 -7 -40 0 -32 1 -33 40 -33 l40 0 0 40 c0
39 -1 40 -33 40 -19 0 -37 -3 -40 -7z"/>
<path d="M6679 3003 c-108 -92 -56 -283 77 -283 51 0 96 20 118 52 22 31 21
34 -15 47 -40 14 -39 14 -39 -4 0 -8 -9 -19 -19 -25 -58 -30 -111 11 -111 85
0 74 53 115 111 85 10 -6 19 -17 19 -25 0 -18 -1 -18 39 -4 36 13 37 16 15 47
-40 57 -141 70 -195 25z"/>
<path d="M7300 2980 c0 -47 -1 -50 -19 -40 -101 53 -185 -116 -100 -201 22
-22 88 -26 107 -7 9 9 12 9 12 0 0 -7 14 -12 35 -12 l35 0 0 155 0 155 -35 0
-35 0 0 -50z m-12 -102 c20 -20 15 -86 -8 -98 -44 -23 -85 34 -61 86 12 26 48
33 69 12z"/>
<path d="M7410 3000 c0 -28 3 -30 35 -30 32 0 35 2 35 30 0 28 -3 30 -35 30
-32 0 -35 -2 -35 -30z"/>
<path d="M8420 3000 c0 -28 3 -30 35 -30 32 0 35 2 35 30 0 28 -3 30 -35 30
-32 0 -35 -2 -35 -30z"/>
<path d="M8680 2875 l0 -155 30 0 30 0 0 68 c0 74 15 106 46 100 17 -3 19 -13
22 -86 l3 -82 34 0 35 0 0 93 c0 86 -2 95 -24 116 -25 23 -55 25 -98 6 -16 -6
-18 -1 -18 44 0 50 -1 51 -30 51 l-30 0 0 -155z"/>
<path d="M9000 2875 l0 -155 105 0 105 0 0 30 0 30 -70 0 -70 0 0 125 0 125
-35 0 -35 0 0 -155z"/>
<path d="M9240 2875 l0 -155 105 0 105 0 0 30 0 30 -70 0 -70 0 0 125 0 125
-35 0 -35 0 0 -155z"/>
<path d="M9470 2876 l0 -156 35 0 35 0 1 103 1 102 35 -102 c31 -91 37 -103
58 -103 21 0 27 12 58 103 l35 102 1 -102 1 -103 35 0 35 0 0 155 0 155 -50 0
c-32 0 -52 -5 -55 -12 -2 -7 -16 -53 -32 -103 l-27 -90 -31 100 -31 100 -52 3
-52 3 0 -155z"/>
<path d="M10130 3000 c0 -28 3 -30 35 -30 32 0 35 2 35 30 0 28 -3 30 -35 30
-32 0 -35 -2 -35 -30z"/>
<path d="M10551 3018 c0 -7 24 -76 52 -153 l52 -140 39 0 38 0 49 135 c27 74
52 143 55 152 4 15 -1 18 -30 18 -38 0 -41 -6 -90 -157 -10 -29 -19 -53 -20
-53 -2 0 -20 47 -41 105 l-37 105 -34 0 c-21 0 -34 -5 -33 -12z"/>
<path d="M10883 3010 c-82 -49 -42 -147 67 -165 50 -8 70 -30 47 -52 -21 -22
-74 -19 -108 6 l-27 20 -21 -23 c-20 -22 -20 -23 -4 -39 28 -24 70 -37 123
-37 40 0 56 5 80 28 62 57 42 131 -43 152 -64 16 -87 28 -87 44 0 36 65 41
103 8 15 -14 19 -13 37 3 27 25 25 32 -12 55 -43 26 -113 26 -155 0z"/>
<path d="M11163 3010 c-50 -30 -68 -66 -68 -135 0 -99 54 -155 149 -155 41 0
53 5 82 34 42 42 42 51 5 64 -26 9 -32 8 -46 -14 -30 -46 -96 -27 -115 32 -15
45 0 108 30 124 33 18 68 12 85 -14 14 -22 20 -23 46 -14 37 13 37 22 -5 64
-29 29 -41 34 -82 34 -31 0 -61 -7 -81 -20z"/>
<path d="M11780 2980 c0 -47 -11 -63 -25 -40 -8 13 -61 13 -86 0 -28 -16 -49
-63 -49 -114 0 -62 37 -106 89 -106 20 0 43 6 50 13 11 10 14 10 18 0 3 -7 18
-13 34 -13 l29 0 0 155 0 155 -30 0 c-29 0 -30 -1 -30 -50z m-10 -116 c21 -54
-17 -107 -60 -84 -19 10 -25 34 -20 70 6 46 64 56 80 14z"/>
<path d="M8540 2980 c0 -20 -5 -30 -15 -30 -10 0 -15 -10 -15 -30 0 -20 5 -30
15 -30 12 0 15 -14 15 -69 0 -83 13 -101 71 -101 36 0 39 2 39 29 0 23 -5 30
-22 33 -20 3 -23 10 -26 56 -3 50 -2 52 22 52 22 0 26 5 26 30 0 25 -4 30 -25
30 -21 0 -25 5 -25 30 0 27 -3 30 -30 30 -27 0 -30 -3 -30 -30z"/>
<path d="M6960 2935 c-65 -35 -73 -148 -13 -195 34 -27 101 -27 136 0 37 29
52 83 38 131 -20 68 -98 99 -161 64z m98 -85 c9 -61 -31 -98 -69 -64 -25 23
-24 69 2 95 18 18 23 19 42 6 12 -8 23 -24 25 -37z"/>
<path d="M7410 2835 l0 -115 35 0 35 0 0 115 0 115 -35 0 -35 0 0 -115z"/>
<path d="M7520 2835 l0 -115 35 0 35 0 0 80 c0 65 3 82 16 87 35 13 49 -10 52
-91 l3 -76 29 0 30 0 0 95 c0 82 -3 98 -20 115 -22 22 -60 26 -90 10 -13 -7
-21 -7 -25 0 -3 5 -19 10 -36 10 l-29 0 0 -115z"/>
<path d="M7788 2925 c-67 -67 -29 -195 57 -195 15 0 35 5 46 11 18 9 20 8 17
-13 -4 -33 -51 -48 -77 -24 -22 20 -71 13 -71 -10 0 -20 60 -54 95 -54 41 0
97 30 112 60 8 15 13 68 13 138 l0 112 -35 0 c-19 0 -35 -5 -35 -10 0 -7 -6
-7 -19 0 -34 18 -77 12 -103 -15z m118 -61 c3 -13 3 -35 0 -48 -13 -51 -86
-31 -86 24 0 55 73 75 86 24z"/>
<path d="M8080 2943 c0 -4 14 -57 32 -116 l32 -108 31 3 c27 3 31 8 44 56 8
28 17 52 21 52 4 0 13 -25 20 -56 13 -53 15 -55 44 -52 29 3 31 7 63 108 18
58 33 109 33 113 0 5 -14 7 -32 5 -30 -3 -33 -7 -46 -60 -8 -32 -17 -58 -21
-58 -4 0 -13 26 -21 58 -13 50 -18 57 -40 57 -22 0 -27 -7 -40 -57 -8 -32 -17
-58 -20 -58 -3 0 -12 26 -20 58 -14 54 -17 57 -47 60 -18 2 -33 0 -33 -5z"/>
<path d="M8420 2835 l0 -115 35 0 35 0 0 115 0 115 -35 0 -35 0 0 -115z"/>
<path d="M9868 2934 c-31 -16 -46 -58 -31 -83 11 -18 42 -34 87 -48 16 -4 30
-12 30 -18 1 -17 -54 -17 -79 -1 -22 15 -25 14 -39 -6 -23 -33 0 -51 71 -56
73 -5 113 20 113 73 0 40 -11 50 -73 66 -27 6 -46 16 -44 23 4 12 39 12 74 1
16 -5 24 -2 32 14 10 18 7 22 -18 36 -37 19 -88 19 -123 -1z"/>
<path d="M10130 2835 l0 -115 35 0 35 0 0 115 0 115 -35 0 -35 0 0 -115z"/>
<path d="M10240 2835 l0 -115 35 0 35 0 0 80 c0 65 3 82 16 87 35 13 49 -10
52 -91 l3 -76 29 0 30 0 0 95 c0 82 -3 98 -20 115 -22 22 -60 26 -90 10 -13
-7 -21 -7 -25 0 -3 5 -19 10 -36 10 l-29 0 0 -115z"/>
<path d="M11430 2935 c-65 -35 -73 -148 -13 -195 34 -27 101 -27 136 0 37 29
52 83 38 131 -20 68 -98 99 -161 64z m98 -85 c9 -61 -31 -98 -69 -64 -25 23
-24 69 2 95 18 18 23 19 42 6 12 -8 23 -24 25 -37z"/>
<path d="M11924 2931 c-62 -38 -69 -127 -14 -183 23 -22 37 -28 73 -28 70 0
130 59 75 73 -13 4 -29 0 -38 -8 -30 -27 -80 -13 -80 22 0 10 20 13 76 13 l77
0 -6 38 c-13 77 -95 115 -163 73z m84 -43 c21 -21 13 -28 -28 -28 -22 0 -40 4
-40 8 0 14 23 32 40 32 9 0 21 -5 28 -12z"/>
<path d="M13353 2390 c-33 -13 -55 -55 -55 -103 1 -34 7 -47 32 -69 16 -16 40
-28 53 -28 29 0 67 27 67 47 0 14 -4 13 -23 -5 -50 -47 -107 -13 -107 62 0 36
5 48 26 65 33 26 45 26 78 0 32 -25 44 -20 19 9 -22 24 -60 33 -90 22z"/>
<path d="M6630 2290 l0 -100 65 0 c78 0 88 18 13 22 l-53 3 -3 88 c-4 121 -22
111 -22 -13z"/>
<path d="M7430 2290 c0 -60 4 -100 10 -100 6 0 10 27 10 60 0 55 2 60 24 66
38 9 46 -2 46 -67 0 -33 4 -59 10 -59 14 0 13 123 -2 138 -7 7 -21 12 -33 12
-12 0 -26 -5 -33 -12 -9 -9 -12 -4 -12 25 0 20 -4 37 -10 37 -6 0 -10 -40 -10
-100z"/>
<path d="M10550 2290 l0 -100 65 0 c78 0 88 18 13 22 l-53 3 -3 88 c-4 121
-22 111 -22 -13z"/>
<path d="M10710 2290 l0 -100 60 0 c33 0 60 4 60 10 0 6 -22 10 -50 10 l-50 0
0 90 c0 53 -4 90 -10 90 -6 0 -10 -40 -10 -100z"/>
<path d="M10870 2291 c0 -124 18 -136 22 -14 l3 86 30 -84 c17 -46 35 -83 40
-83 6 0 24 38 42 85 l32 84 0 -87 c1 -52 5 -88 11 -88 6 0 10 40 10 101 0 87
-2 100 -16 97 -10 -2 -27 -31 -43 -75 -14 -39 -29 -74 -32 -78 -4 -3 -20 29
-37 72 -18 48 -36 79 -46 81 -14 3 -16 -9 -16 -97z"/>
<path d="M11324 2290 c0 -58 1 -81 3 -52 2 28 2 76 0 105 -2 28 -3 5 -3 -53z"/>
<path d="M11380 2380 c0 -5 7 -10 15 -10 8 0 15 5 15 10 0 6 -7 10 -15 10 -8
0 -15 -4 -15 -10z"/>
<path d="M11450 2290 c0 -60 4 -100 10 -100 6 0 10 14 10 30 0 34 27 53 41 28
16 -29 47 -63 53 -58 3 3 -8 26 -24 50 l-29 44 26 28 c40 42 15 34 -29 -9
l-38 -37 0 62 c0 35 -4 62 -10 62 -6 0 -10 -40 -10 -100z"/>
<path d="M11820 2291 c0 -124 18 -136 22 -14 l3 86 30 -84 c17 -46 35 -83 40
-83 6 0 24 38 42 85 l32 84 0 -87 c1 -52 5 -88 11 -88 6 0 10 40 10 101 0 87
-2 100 -16 97 -10 -2 -27 -31 -43 -75 -14 -39 -29 -74 -32 -78 -4 -3 -20 29
-37 72 -18 48 -36 79 -46 81 -14 3 -16 -9 -16 -97z"/>
<path d="M12060 2380 c0 -5 7 -10 15 -10 8 0 15 5 15 10 0 6 -7 10 -15 10 -8
0 -15 -4 -15 -10z"/>
<path d="M12630 2290 c0 -60 4 -100 10 -100 6 0 10 40 10 100 0 60 -4 100 -10
100 -6 0 -10 -40 -10 -100z"/>
<path d="M13170 2356 c0 -34 0 -34 -30 -23 -26 10 -33 9 -52 -11 -14 -14 -22
-34 -22 -57 0 -23 8 -43 22 -57 19 -20 26 -21 52 -11 16 6 30 7 30 2 0 -5 5
-9 10 -9 6 0 10 40 10 100 0 60 -4 100 -10 100 -5 0 -10 -15 -10 -34z m-10
-51 c16 -20 16 -61 0 -80 -21 -25 -63 -15 -74 17 -20 57 38 106 74 63z"/>
<path d="M13760 2355 c0 -34 -12 -46 -25 -25 -10 16 -44 11 -65 -10 -54 -54
14 -170 69 -117 11 10 14 10 18 0 14 -37 23 -2 23 87 0 60 -4 100 -10 100 -5
0 -10 -16 -10 -35z m-12 -47 c7 -7 12 -26 12 -43 0 -36 -15 -55 -45 -55 -30 0
-45 19 -45 55 0 36 15 55 45 55 12 0 26 -5 33 -12z"/>
<path d="M13980 2290 c0 -60 4 -100 10 -100 6 0 10 40 10 100 0 60 -4 100 -10
100 -6 0 -10 -40 -10 -100z"/>
<path d="M14050 2290 c0 -60 4 -100 10 -100 6 0 10 40 10 100 0 60 -4 100 -10
100 -6 0 -10 -40 -10 -100z"/>
<path d="M8020 2361 c0 -11 -6 -22 -12 -25 -10 -5 -10 -7 0 -12 7 -3 12 -24
12 -50 0 -55 14 -84 40 -84 26 0 26 16 0 23 -17 4 -20 14 -20 56 0 44 3 51 20
51 11 0 20 5 20 10 0 6 -9 10 -20 10 -13 0 -20 7 -20 20 0 11 -4 20 -10 20 -5
0 -10 -9 -10 -19z"/>
<path d="M12280 2360 c0 -11 -7 -20 -15 -20 -8 0 -15 -4 -15 -10 0 -5 7 -10
15 -10 10 0 15 -16 17 -62 3 -57 5 -63 26 -66 12 -2 22 1 22 7 0 6 -7 11 -15
11 -12 0 -15 13 -15 55 0 42 3 55 15 55 8 0 15 5 15 10 0 6 -7 10 -15 10 -8 0
-15 9 -15 20 0 11 -4 20 -10 20 -5 0 -10 -9 -10 -20z"/>
<path d="M6802 2317 c-29 -31 -29 -77 1 -105 13 -12 32 -22 43 -22 25 0 62 26
51 36 -4 4 -13 2 -19 -4 -25 -25 -78 -8 -78 25 0 9 17 13 56 13 53 0 55 1 48
23 -17 58 -65 74 -102 34z m78 -17 c10 -19 8 -20 -35 -20 -46 0 -54 7 -33 28
19 19 56 14 68 -8z"/>
<path d="M6955 2320 c-19 -20 -8 -29 12 -9 15 15 57 7 61 -11 2 -11 -11 -19
-43 -28 -37 -10 -45 -16 -45 -36 0 -35 25 -52 59 -39 19 7 34 7 46 0 15 -8 17
-7 12 7 -4 10 -7 37 -7 61 0 69 -54 101 -95 55z m75 -64 c0 -32 -13 -46 -41
-46 -55 0 -28 57 29 59 6 1 12 -5 12 -13z"/>
<path d="M7100 2265 c0 -88 18 -102 22 -17 3 48 7 59 26 67 12 5 22 13 22 17
0 11 -8 10 -31 -2 -13 -7 -19 -7 -19 0 0 5 -4 10 -10 10 -6 0 -10 -32 -10 -75z"/>
<path d="M7212 2265 c1 -76 1 -77 7 -25 8 67 15 80 46 80 28 0 35 -16 35 -81
0 -27 5 -49 10 -49 17 0 12 116 -6 134 -19 19 -45 21 -62 4 -10 -10 -15 -10
-22 2 -7 10 -9 -11 -8 -65z"/>
<path d="M7602 2317 c-29 -31 -29 -77 1 -105 46 -44 107 -13 107 53 0 67 -65
98 -108 52z m76 -9 c7 -7 12 -26 12 -43 0 -37 -16 -55 -47 -55 -25 0 -43 26
-43 62 0 30 17 48 45 48 12 0 26 -5 33 -12z"/>
<path d="M7740 2331 c0 -22 42 -141 49 -141 5 0 14 23 21 50 7 28 16 52 20 55
5 3 14 -20 21 -50 7 -31 17 -54 23 -52 5 2 20 36 32 76 12 39 17 70 12 69 -6
-2 -18 -28 -28 -58 l-17 -55 -17 58 c-10 31 -21 57 -26 57 -5 0 -14 -25 -21
-55 -7 -30 -15 -55 -19 -55 -4 0 -13 25 -20 55 -7 30 -17 55 -22 55 -4 0 -8
-4 -8 -9z"/>
<path d="M8132 2317 c-29 -31 -29 -77 1 -105 46 -44 107 -13 107 53 0 67 -65
98 -108 52z m76 -9 c7 -7 12 -26 12 -43 0 -37 -16 -55 -47 -55 -25 0 -43 26
-43 62 0 30 17 48 45 48 12 0 26 -5 33 -12z"/>
<path d="M8340 2281 c0 -41 5 -65 16 -75 19 -19 45 -21 63 -3 11 10 14 10 18
0 12 -34 23 -5 23 62 0 43 -4 75 -10 75 -5 0 -10 -22 -10 -48 0 -58 -17 -85
-51 -80 -22 3 -24 8 -27 66 -4 79 -22 82 -22 3z"/>
<path d="M8510 2325 c-19 -23 -7 -49 28 -61 39 -12 57 -28 48 -43 -9 -15 -59
-14 -74 1 -6 6 -15 8 -19 4 -12 -12 27 -36 58 -36 33 0 63 35 50 58 -5 8 -24
20 -42 26 -20 6 -35 19 -37 30 -4 17 1 18 37 13 35 -4 40 -3 30 9 -15 18 -63
18 -79 -1z"/>
<path d="M8660 2320 c-43 -43 -13 -130 43 -130 13 0 32 9 42 20 20 22 14 26
-14 9 -25 -16 -67 -4 -74 21 -5 18 0 20 49 20 45 0 54 3 54 18 0 54 -62 80
-100 42z m78 -22 c3 -15 -4 -18 -37 -18 -39 0 -53 14 -34 34 14 14 68 1 71
-16z"/>
<path d="M8872 2317 c-29 -31 -29 -77 1 -105 46 -44 107 -13 107 53 0 67 -65
98 -108 52z m76 -9 c7 -7 12 -26 12 -43 0 -37 -16 -55 -47 -55 -25 0 -43 26
-43 62 0 30 17 48 45 48 12 0 26 -5 33 -12z"/>
<path d="M9020 2240 c0 -60 4 -100 10 -100 6 0 10 16 10 35 0 34 12 46 25 25
10 -16 44 -11 65 10 54 54 -14 170 -69 118 -11 -10 -14 -10 -18 0 -14 36 -23
1 -23 -88z m98 68 c17 -17 15 -73 -2 -88 -42 -34 -92 22 -68 75 13 27 49 34
70 13z"/>
<path d="M9210 2320 c-43 -43 -13 -130 43 -130 13 0 32 9 42 20 20 22 14 26
-14 9 -25 -16 -67 -4 -74 21 -5 18 0 20 49 20 45 0 54 3 54 18 0 54 -62 80
-100 42z m78 -22 c3 -15 -4 -18 -37 -18 -39 0 -53 14 -34 34 14 14 68 1 71
-16z"/>
<path d="M9350 2265 c0 -43 4 -75 10 -75 6 0 10 24 10 53 0 55 12 77 41 77 24
0 31 -13 39 -79 l7 -56 2 66 c1 80 -13 99 -60 82 -16 -6 -29 -7 -29 -2 0 5 -4
9 -10 9 -6 0 -10 -32 -10 -75z"/>
<path d="M9625 2324 c-9 -9 -14 -23 -11 -31 3 -8 6 -16 6 -18 0 -3 18 -9 41
-15 29 -8 39 -16 37 -28 -4 -21 -44 -28 -64 -11 -8 6 -18 9 -22 5 -9 -10 27
-36 51 -36 29 0 57 19 57 39 0 23 -16 37 -53 46 -36 9 -44 25 -22 41 16 12 22
12 41 -1 13 -8 25 -11 29 -5 7 11 -26 30 -54 30 -11 0 -27 -7 -36 -16z"/>
<path d="M9772 2317 c-29 -31 -29 -77 1 -105 46 -44 107 -13 107 53 0 67 -65
98 -108 52z m76 -9 c7 -7 12 -26 12 -43 0 -37 -16 -55 -47 -55 -25 0 -43 26
-43 62 0 30 17 48 45 48 12 0 26 -5 33 -12z"/>
<path d="M9920 2281 c0 -41 5 -65 16 -75 19 -19 45 -21 63 -3 11 10 14 10 18
0 12 -34 23 -5 23 62 0 43 -4 75 -10 75 -5 0 -10 -22 -10 -48 0 -58 -17 -85
-51 -80 -22 3 -24 8 -27 66 -4 79 -22 82 -22 3z"/>
<path d="M10092 2265 c1 -72 1 -75 7 -29 7 53 24 84 47 84 8 0 14 5 14 10 0
13 -6 13 -32 -1 -16 -9 -23 -8 -29 2 -5 9 -8 -18 -7 -66z"/>
<path d="M10200 2320 c-43 -43 -13 -130 43 -130 27 0 64 34 48 44 -5 4 -14 -1
-19 -10 -13 -23 -54 -14 -71 17 -13 24 -13 29 2 53 17 26 67 38 67 16 0 -5 7
-10 17 -10 14 0 14 2 -2 20 -10 11 -29 20 -42 20 -12 0 -32 -9 -43 -20z"/>
<path d="M10350 2320 c-43 -43 -13 -130 43 -130 13 0 32 9 42 20 20 22 14 26
-14 9 -25 -16 -67 -4 -74 21 -5 18 0 20 49 20 45 0 54 3 54 18 0 54 -62 80
-100 42z m78 -22 c3 -15 -4 -18 -37 -18 -39 0 -53 14 -34 34 14 14 68 1 71
-16z"/>
<path d="M11120 2325 c-19 -23 -7 -49 28 -61 39 -12 57 -28 48 -43 -9 -15 -59
-14 -74 1 -6 6 -15 8 -19 4 -12 -12 27 -36 58 -36 33 0 63 35 50 58 -5 8 -24
20 -42 26 -20 6 -35 19 -37 30 -4 17 1 18 37 13 35 -4 40 -3 30 9 -15 18 -63
18 -79 -1z"/>
<path d="M11393 2265 c0 -44 2 -61 4 -37 2 23 2 59 0 80 -2 20 -4 1 -4 -43z"/>
<path d="M11615 2320 c-56 -62 15 -164 81 -116 11 8 15 18 10 23 -5 4 -11 2
-13 -4 -7 -21 -61 -16 -73 6 -15 30 -14 31 45 31 48 0 55 2 55 20 0 27 -35 60
-63 60 -13 0 -32 -9 -42 -20z m73 -12 c21 -21 13 -28 -33 -28 -43 0 -45 1 -35
20 12 22 49 27 68 8z"/>
<path d="M12073 2265 c0 -44 2 -61 4 -37 2 23 2 59 0 80 -2 20 -4 1 -4 -43z"/>
<path d="M12142 2328 c-28 -28 -10 -60 41 -72 39 -9 38 -46 -1 -46 -15 0 -33
5 -40 12 -6 6 -15 8 -19 4 -10 -10 26 -36 50 -36 32 0 57 20 57 45 0 20 -8 26
-40 36 -28 9 -40 18 -40 31 0 10 6 19 13 19 23 2 42 -3 48 -13 4 -7 9 -7 13 0
15 24 -60 42 -82 20z"/>
<path d="M12370 2265 c0 -88 18 -102 22 -17 3 48 7 59 26 67 12 5 22 13 22 17
0 12 -14 10 -29 -4 -11 -10 -14 -10 -18 0 -12 33 -23 4 -23 -63z"/>
<path d="M12485 2320 c-19 -20 -8 -29 12 -9 15 15 57 7 61 -11 2 -11 -11 -19
-43 -28 -37 -10 -45 -16 -45 -36 0 -35 25 -52 59 -39 19 7 34 7 46 0 15 -8 17
-7 12 7 -4 10 -7 37 -7 61 0 69 -54 101 -95 55z m75 -64 c0 -32 -13 -46 -41
-46 -55 0 -28 57 29 59 6 1 12 -5 12 -13z"/>
<path d="M12770 2325 c-7 -9 -10 -19 -6 -22 4 -4 11 -2 15 6 11 17 55 10 59
-10 2 -10 -9 -18 -34 -25 -45 -11 -64 -36 -48 -61 14 -22 50 -29 70 -13 11 10
17 10 29 0 9 -7 19 -9 23 -5 4 4 1 10 -5 12 -8 3 -13 24 -13 57 0 29 -5 57
-12 64 -17 17 -63 15 -78 -3z m68 -82 c-2 -23 -8 -29 -35 -31 -28 -3 -33 0
-33 18 0 12 9 24 23 30 39 16 49 12 45 -17z"/>
<path d="M12910 2265 c0 -43 4 -75 10 -75 6 0 10 24 10 53 0 55 12 77 41 77
24 0 31 -13 39 -79 l7 -56 2 66 c1 80 -13 99 -60 82 -16 -6 -29 -7 -29 -2 0 5
-4 9 -10 9 -6 0 -10 -32 -10 -75z"/>
<path d="M13512 2324 c-17 -12 -22 -25 -22 -59 0 -67 52 -96 101 -56 47 37 18
131 -40 131 -9 0 -27 -7 -39 -16z m80 -29 c17 -37 0 -79 -33 -83 -32 -4 -52
19 -51 58 1 41 9 50 43 50 22 0 32 -7 41 -25z"/>
<path d="M13840 2320 c-43 -43 -13 -130 44 -130 25 0 62 28 51 38 -3 3 -11 0
-17 -6 -25 -25 -78 -8 -78 25 0 9 16 13 50 13 46 0 50 2 50 23 0 51 -63 74
-100 37z m78 -22 c3 -15 -4 -18 -37 -18 -43 0 -50 7 -29 28 18 18 62 11 66
-10z"/>
<path d="M14130 2325 c-7 -9 -10 -19 -6 -22 4 -4 11 -2 15 6 11 17 55 10 59
-10 2 -10 -9 -18 -34 -25 -45 -11 -64 -36 -48 -61 14 -22 50 -29 70 -13 11 10
17 10 29 0 9 -7 19 -9 23 -5 4 4 1 10 -5 12 -8 3 -13 24 -13 57 0 29 -5 57
-12 64 -17 17 -63 15 -78 -3z m68 -82 c-2 -23 -8 -29 -35 -31 -28 -3 -33 0
-33 18 0 12 9 24 23 30 39 16 49 12 45 -17z"/>
<path d="M14270 2265 c0 -87 18 -102 22 -19 3 60 20 83 52 71 12 -5 16 -20 16
-67 0 -33 4 -60 10 -60 6 0 10 21 10 46 0 54 14 84 40 84 26 0 34 -16 41 -80
l6 -55 2 66 c1 81 -13 100 -61 81 -23 -8 -35 -8 -49 1 -15 9 -24 9 -41 -2 -16
-10 -23 -10 -26 -2 -2 6 -8 11 -13 11 -5 0 -9 -34 -9 -75z"/>
<path d="M14534 2326 c-10 -8 -16 -18 -11 -22 4 -4 13 -2 19 4 19 19 58 15 58
-7 0 -13 -10 -20 -32 -25 -17 -3 -37 -11 -45 -17 -38 -32 16 -87 59 -60 15 9
23 10 34 0 18 -15 32 -3 16 13 -7 7 -12 33 -12 58 0 25 -5 51 -12 58 -16 16
-50 15 -74 -2z m64 -83 c-2 -24 -8 -28 -33 -28 -38 0 -47 31 -13 44 40 17 50
13 46 -16z"/>
<path d="M9528 2273 c12 -2 30 -2 40 0 9 3 -1 5 -23 4 -22 0 -30 -2 -17 -4z"/>
<path d="M7754 2030 c-34 -14 -54 -50 -54 -98 0 -35 6 -49 29 -73 17 -16 40
-29 54 -29 27 0 80 37 72 50 -3 5 -15 0 -25 -10 -45 -45 -110 -8 -110 61 0 29
7 47 25 64 30 31 52 31 82 3 28 -26 45 -15 17 12 -24 23 -62 32 -90 20z"/>
<path d="M8433 2030 c-33 -13 -55 -55 -55 -103 1 -34 7 -47 32 -69 34 -31 71
-36 94 -13 19 19 24 19 29 -2 3 -10 5 6 6 35 l1 52 -37 -1 c-31 -2 -33 -3 -10
-6 52 -8 23 -73 -33 -73 -38 0 -60 32 -60 86 0 34 5 47 26 63 34 27 52 26 81
-1 28 -26 40 -19 16 10 -22 24 -60 33 -90 22z"/>
<path d="M11487 2028 c-32 -11 -47 -53 -26 -74 8 -7 32 -19 53 -27 49 -17 65
-39 47 -61 -17 -21 -60 -20 -89 0 -29 20 -45 8 -17 -12 50 -37 113 -27 129 19
12 34 -7 57 -61 72 -44 12 -62 37 -44 59 17 20 50 20 79 0 23 -16 32 -4 10 14
-22 17 -52 21 -81 10z"/>
<path d="M12395 2026 c-104 -45 -43 -228 63 -190 28 10 50 39 39 50 -4 4 -14
-2 -23 -14 -22 -31 -67 -29 -93 4 -29 37 -27 89 4 119 30 30 58 32 86 4 11
-11 23 -18 27 -15 8 9 -28 43 -53 49 -11 4 -34 0 -50 -7z"/>
<path d="M6840 2020 c0 -5 5 -10 10 -10 6 0 10 5 10 10 0 6 -4 10 -10 10 -5 0
-10 -4 -10 -10z"/>
<path d="M7010 1930 c0 -60 4 -100 10 -100 6 0 10 27 10 60 0 55 2 60 24 66
38 9 46 -2 46 -67 0 -33 4 -59 10 -59 14 0 13 123 -2 138 -7 7 -21 12 -33 12
-12 0 -26 -5 -33 -12 -9 -9 -12 -4 -12 25 0 20 -4 37 -10 37 -6 0 -10 -40 -10
-100z"/>
<path d="M7330 1930 c0 -60 4 -100 10 -100 6 0 10 27 10 60 0 55 2 60 24 66
38 9 46 -2 46 -67 0 -33 4 -59 10 -59 14 0 13 123 -2 138 -7 7 -21 12 -33 12
-12 0 -26 -5 -33 -12 -9 -9 -12 -4 -12 25 0 20 -4 37 -10 37 -6 0 -10 -40 -10
-100z"/>
<path d="M8160 1995 c0 -32 -2 -35 -19 -25 -47 24 -91 -7 -91 -65 0 -58 44
-89 91 -65 13 7 19 7 19 0 0 -5 5 -10 10 -10 6 0 10 40 10 100 0 60 -4 100
-10 100 -5 0 -10 -16 -10 -35z m-12 -47 c17 -17 15 -73 -2 -88 -42 -34 -92 22
-68 75 13 27 49 34 70 13z"/>
<path d="M8590 1930 c0 -60 4 -100 10 -100 6 0 10 20 10 45 l0 45 45 0 c32 0
51 6 65 20 24 24 25 38 4 68 -13 19 -24 22 -75 22 l-59 0 0 -100z m110 72 c19
-16 21 -22 11 -40 -9 -18 -21 -22 -56 -22 -44 0 -45 1 -45 33 0 19 3 37 7 40
13 13 61 7 83 -11z"/>
<path d="M8790 2021 l35 -6 3 -92 c4 -123 22 -121 22 1 l0 95 38 4 c20 2 -1 4
-48 4 -52 0 -71 -2 -50 -6z"/>
<path d="M9860 2020 c0 -5 5 -10 10 -10 6 0 10 5 10 10 0 6 -4 10 -10 10 -5 0
-10 -4 -10 -10z"/>
<path d="M10320 2020 c0 -5 5 -10 10 -10 6 0 10 5 10 10 0 6 -4 10 -10 10 -5
0 -10 -4 -10 -10z"/>
<path d="M10606 2008 c25 -82 68 -178 78 -178 7 0 17 15 23 33 6 17 22 63 37
100 14 38 21 67 14 65 -6 -2 -24 -39 -40 -81 -17 -42 -33 -75 -37 -72 -5 2
-20 38 -36 80 -15 41 -31 75 -37 75 -5 0 -6 -10 -2 -22z"/>
<path d="M10800 2020 c0 -5 7 -10 15 -10 8 0 15 5 15 10 0 6 -7 10 -15 10 -8
0 -15 -4 -15 -10z"/>
<path d="M11330 1930 c0 -60 4 -100 10 -100 6 0 10 40 10 100 0 60 -4 100 -10
100 -6 0 -10 -40 -10 -100z"/>
<path d="M11990 1995 c0 -34 -12 -46 -25 -25 -10 16 -44 11 -65 -10 -54 -54
14 -170 69 -117 11 10 14 10 18 0 14 -37 23 -2 23 87 0 60 -4 100 -10 100 -5
0 -10 -16 -10 -35z m-12 -47 c7 -7 12 -26 12 -43 0 -36 -15 -55 -45 -55 -30 0
-45 19 -45 55 0 36 15 55 45 55 12 0 26 -5 33 -12z"/>
<path d="M12060 2020 c0 -5 5 -10 10 -10 6 0 10 5 10 10 0 6 -4 10 -10 10 -5
0 -10 -4 -10 -10z"/>
<path d="M12800 1996 c0 -34 0 -34 -30 -23 -26 10 -33 9 -52 -11 -14 -14 -22
-34 -22 -57 0 -23 8 -43 22 -57 19 -20 26 -21 52 -11 16 6 30 7 30 2 0 -5 5
-9 10 -9 6 0 10 40 10 100 0 60 -4 100 -10 100 -5 0 -10 -15 -10 -34z m-10
-51 c16 -20 16 -61 0 -80 -21 -25 -63 -15 -74 17 -20 57 38 106 74 63z"/>
<path d="M13150 1930 l0 -100 28 0 c47 0 101 20 117 43 8 12 15 41 15 65 0 62
-34 92 -106 92 l-54 0 0 -100z m123 58 c10 -11 17 -37 17 -58 0 -47 -36 -80
-86 -80 l-34 0 0 78 c0 43 3 82 7 86 13 13 77 -4 96 -26z"/>
<path d="M13350 2020 c0 -5 7 -10 15 -10 8 0 15 5 15 10 0 6 -7 10 -15 10 -8
0 -15 -4 -15 -10z"/>
<path d="M14440 1930 c0 -60 4 -100 10 -100 6 0 10 27 10 60 0 55 2 60 24 66
38 9 46 -2 46 -67 0 -33 4 -59 10 -59 14 0 13 123 -2 138 -7 7 -21 12 -33 12
-12 0 -26 -5 -33 -12 -9 -9 -12 -4 -12 25 0 20 -4 37 -10 37 -6 0 -10 -40 -10
-100z"/>
<path d="M6910 2001 c0 -11 -6 -22 -12 -25 -10 -5 -10 -7 0 -12 7 -3 12 -24
12 -50 0 -55 14 -84 40 -84 26 0 26 16 0 23 -17 4 -20 14 -20 56 0 44 3 51 20
51 11 0 20 5 20 10 0 6 -9 10 -20 10 -13 0 -20 7 -20 20 0 11 -4 20 -10 20 -5
0 -10 -9 -10 -19z"/>
<path d="M7230 2001 c0 -11 -6 -22 -12 -25 -10 -5 -10 -7 0 -12 7 -3 12 -24
12 -50 0 -55 14 -84 40 -84 26 0 26 16 0 23 -17 4 -20 14 -20 56 0 44 3 51 20
51 11 0 20 5 20 10 0 6 -9 10 -20 10 -13 0 -20 7 -20 20 0 11 -4 20 -10 20 -5
0 -10 -9 -10 -19z"/>
<path d="M9310 2001 c0 -11 -6 -22 -12 -25 -10 -5 -10 -7 0 -12 7 -3 12 -26
12 -58 0 -54 12 -76 42 -76 24 0 23 16 -2 23 -17 4 -20 14 -20 56 0 39 4 51
15 51 8 0 15 5 15 10 0 6 -7 10 -15 10 -8 0 -15 9 -15 20 0 11 -4 20 -10 20
-5 0 -10 -9 -10 -19z"/>
<path d="M11630 2001 c0 -11 -6 -22 -12 -25 -10 -5 -10 -7 0 -12 7 -3 12 -26
12 -58 0 -54 12 -76 42 -76 24 0 23 16 -2 23 -17 4 -20 14 -20 56 0 39 4 51
15 51 8 0 15 5 15 10 0 6 -7 10 -15 10 -8 0 -15 9 -15 20 0 11 -4 20 -10 20
-5 0 -10 -9 -10 -19z"/>
<path d="M14340 2001 c0 -11 -6 -22 -12 -25 -10 -5 -10 -7 0 -12 7 -3 12 -24
12 -50 0 -55 14 -84 40 -84 26 0 26 16 0 23 -17 4 -20 14 -20 56 0 44 3 51 20
51 11 0 20 5 20 10 0 6 -9 10 -20 10 -13 0 -20 7 -20 20 0 11 -4 20 -10 20 -5
0 -10 -9 -10 -19z"/>
<path d="M6620 1971 c0 -22 42 -141 49 -141 5 0 14 23 21 50 7 28 16 52 20 55
5 3 14 -20 21 -50 7 -31 17 -54 23 -52 5 2 20 36 32 76 12 39 17 70 12 69 -6
-2 -18 -28 -28 -58 l-17 -55 -17 58 c-10 31 -21 57 -26 57 -5 0 -14 -25 -21
-55 -7 -30 -15 -55 -19 -55 -4 0 -13 25 -20 55 -7 30 -17 55 -22 55 -4 0 -8
-4 -8 -9z"/>
<path d="M6840 1905 c0 -43 4 -75 10 -75 6 0 10 32 10 75 0 43 -4 75 -10 75
-6 0 -10 -32 -10 -75z"/>
<path d="M7502 1957 c-29 -31 -29 -77 1 -105 13 -12 32 -22 43 -22 25 0 62 26
51 36 -4 4 -13 2 -19 -4 -25 -25 -78 -8 -78 25 0 9 17 13 56 13 53 0 55 1 48
23 -17 58 -65 74 -102 34z m78 -17 c10 -19 8 -20 -35 -20 -46 0 -54 7 -33 28
19 19 56 14 68 -8z"/>
<path d="M7910 1960 c-42 -42 -13 -130 43 -130 59 0 88 87 44 128 -29 27 -61
28 -87 2z m82 -25 c24 -53 -26 -109 -68 -75 -17 15 -19 71 -2 88 21 21 57 14
70 -13z"/>
<path d="M8242 1957 c-29 -31 -29 -77 1 -105 13 -12 32 -22 43 -22 25 0 62 26
51 36 -4 4 -13 2 -19 -4 -25 -25 -78 -8 -78 25 0 9 17 13 56 13 53 0 55 1 48
23 -17 58 -65 74 -102 34z m78 -17 c10 -19 8 -20 -35 -20 -46 0 -54 7 -33 28
19 19 56 14 68 -8z"/>
<path d="M9022 1957 c-29 -31 -29 -77 1 -105 13 -12 32 -22 43 -22 25 0 62 26
51 36 -4 4 -13 2 -19 -4 -25 -25 -78 -8 -78 25 0 9 17 13 56 13 53 0 55 1 48
23 -17 58 -65 74 -102 34z m78 -17 c10 -19 8 -20 -35 -20 -46 0 -54 7 -33 28
19 19 56 14 68 -8z"/>
<path d="M9160 1961 c5 -11 15 -23 20 -26 16 -10 11 -38 -10 -65 -21 -27 -25
-40 -12 -40 4 0 16 14 26 32 l19 32 28 -34 c37 -44 46 -35 13 14 l-25 37 26
35 c14 19 22 34 16 34 -5 0 -19 -12 -31 -27 l-22 -28 -20 28 c-23 31 -44 37
-28 8z"/>
<path d="M9420 1960 c-43 -43 -13 -130 43 -130 13 0 32 9 42 20 20 22 14 26
-14 9 -25 -16 -67 -4 -74 21 -5 18 0 20 49 20 45 0 54 3 54 18 0 54 -62 80
-100 42z m78 -22 c3 -15 -4 -18 -37 -18 -39 0 -53 14 -34 34 14 14 68 1 71
-16z"/>
<path d="M9560 1905 c0 -43 4 -75 10 -75 6 0 10 24 10 53 0 55 12 77 41 77 24
0 31 -13 39 -79 l7 -56 2 66 c1 80 -13 99 -60 82 -16 -6 -29 -7 -29 -2 0 5 -4
9 -10 9 -6 0 -10 -32 -10 -75z"/>
<path d="M9732 1968 c-28 -28 -10 -60 41 -72 39 -9 38 -46 -1 -46 -15 0 -33 5
-40 12 -6 6 -15 8 -19 4 -10 -10 26 -36 50 -36 32 0 57 20 57 45 0 20 -8 26
-40 36 -28 9 -40 18 -40 31 0 10 6 19 13 19 23 2 42 -3 48 -13 4 -7 9 -7 13 0
15 24 -60 42 -82 20z"/>
<path d="M9860 1905 c0 -43 4 -75 10 -75 6 0 10 32 10 75 0 43 -4 75 -10 75
-6 0 -10 -32 -10 -75z"/>
<path d="M9949 1961 c-48 -38 -18 -131 42 -131 55 0 83 102 37 134 -29 21 -51
20 -79 -3z m79 -30 c15 -42 -5 -76 -43 -76 -37 0 -55 39 -37 80 17 37 66 35
80 -4z"/>
<path d="M10090 1905 c0 -87 18 -102 22 -19 3 64 23 88 56 68 12 -8 18 -27 20
-68 4 -71 22 -74 22 -3 0 79 -40 121 -79 85 -11 -10 -14 -10 -18 0 -12 33 -23
4 -23 -63z"/>
<path d="M10320 1905 c0 -43 4 -75 10 -75 6 0 10 32 10 75 0 43 -4 75 -10 75
-6 0 -10 -32 -10 -75z"/>
<path d="M10392 1905 c1 -76 1 -77 7 -25 8 67 15 80 46 80 28 0 35 -16 35 -81
0 -27 5 -49 10 -49 17 0 12 116 -6 134 -19 19 -45 21 -62 4 -10 -10 -15 -10
-22 2 -7 10 -9 -11 -8 -65z"/>
<path d="M10813 1905 c0 -44 2 -61 4 -37 2 23 2 59 0 80 -2 20 -4 1 -4 -43z"/>
<path d="M10882 1968 c-28 -28 -10 -60 41 -72 39 -9 38 -46 -1 -46 -15 0 -33
5 -40 12 -6 6 -15 8 -19 4 -10 -10 26 -36 50 -36 32 0 57 20 57 45 0 20 -8 26
-40 36 -28 9 -40 18 -40 31 0 10 6 19 13 19 23 2 42 -3 48 -13 4 -7 9 -7 13 0
15 24 -60 42 -82 20z"/>
<path d="M11010 1921 c0 -41 5 -65 16 -75 19 -19 45 -21 63 -3 11 10 14 10 18
0 12 -34 23 -5 23 62 0 43 -4 75 -10 75 -5 0 -10 -22 -10 -48 0 -58 -17 -85
-51 -80 -22 3 -24 8 -27 66 -4 79 -22 82 -22 3z"/>
<path d="M11184 1966 c-10 -8 -16 -18 -11 -22 4 -4 13 -2 19 4 7 7 22 12 34
12 27 0 40 -29 16 -36 -72 -24 -88 -38 -76 -69 8 -20 48 -29 71 -17 10 6 24 7
34 2 14 -8 15 -3 11 43 -7 87 -46 120 -98 83z m76 -75 c0 -25 -24 -43 -52 -39
-30 4 -29 29 2 45 35 18 50 16 50 -6z"/>
<path d="M11720 1927 c0 -79 40 -121 79 -84 11 10 14 10 18 0 12 -34 23 -5 23
62 0 87 -18 102 -22 19 -2 -41 -8 -60 -20 -68 -33 -20 -53 4 -56 68 -4 71 -22
74 -22 3z"/>
<path d="M12060 1905 c0 -43 4 -75 10 -75 6 0 10 32 10 75 0 43 -4 75 -10 75
-6 0 -10 -32 -10 -75z"/>
<path d="M12140 1960 c-42 -42 -13 -130 43 -130 59 0 88 87 44 128 -29 27 -61
28 -87 2z m82 -25 c24 -53 -26 -109 -68 -75 -17 15 -19 71 -2 88 21 21 57 14
70 -13z"/>
<path d="M12552 1957 c-29 -31 -29 -77 1 -105 46 -44 107 -13 107 53 0 67 -65
98 -108 52z m76 -9 c7 -7 12 -26 12 -43 0 -37 -16 -55 -47 -55 -25 0 -43 26
-43 62 0 30 17 48 45 48 12 0 26 -5 33 -12z"/>
<path d="M12885 1960 c-56 -62 15 -164 81 -116 11 8 15 18 10 23 -5 4 -11 2
-13 -4 -7 -21 -61 -16 -73 6 -15 30 -14 31 45 31 48 0 55 2 55 20 0 27 -35 60
-63 60 -13 0 -32 -9 -42 -20z m73 -12 c21 -21 13 -28 -33 -28 -43 0 -45 1 -35
20 12 22 49 27 68 8z"/>
<path d="M13363 1905 c0 -44 2 -61 4 -37 2 23 2 59 0 80 -2 20 -4 1 -4 -43z"/>
<path d="M13430 1965 c-19 -23 -7 -49 28 -61 39 -12 57 -28 48 -43 -9 -15 -59
-14 -74 1 -6 6 -15 8 -19 4 -12 -12 27 -36 58 -36 33 0 63 35 50 58 -5 8 -24
20 -42 26 -20 6 -35 19 -37 30 -4 17 1 18 37 13 35 -4 40 -3 30 9 -15 18 -63
18 -79 -1z"/>
<path d="M13580 1960 c-43 -43 -13 -130 43 -130 27 0 64 34 48 44 -5 4 -14 -1
-19 -10 -13 -23 -54 -14 -71 17 -13 24 -13 29 2 53 17 26 67 38 67 16 0 -5 7
-10 17 -10 14 0 14 2 -2 20 -10 11 -29 20 -42 20 -12 0 -32 -9 -43 -20z"/>
<path d="M13732 1964 c-17 -12 -22 -25 -22 -59 0 -67 52 -96 101 -56 47 37 18
131 -40 131 -9 0 -27 -7 -39 -16z m80 -29 c17 -37 0 -79 -33 -83 -32 -4 -52
19 -51 58 1 41 9 50 43 50 22 0 32 -7 41 -25z"/>
<path d="M13860 1973 c0 -22 54 -143 62 -141 10 4 58 120 58 139 0 5 -4 9 -8
9 -5 0 -17 -27 -27 -60 -10 -32 -21 -57 -25 -55 -3 2 -15 29 -25 59 -11 31
-23 56 -27 56 -4 0 -8 -3 -8 -7z"/>
<path d="M14030 1960 c-43 -43 -13 -130 44 -130 25 0 62 28 51 38 -3 3 -11 0
-17 -6 -25 -25 -78 -8 -78 25 0 9 16 13 50 13 46 0 50 2 50 23 0 51 -63 74
-100 37z m78 -22 c3 -15 -4 -18 -37 -18 -43 0 -50 7 -29 28 18 18 62 11 66
-10z"/>
<path d="M14170 1905 c0 -43 4 -75 10 -75 6 0 10 22 10 49 0 47 17 81 41 81 5
0 9 5 9 10 0 7 -8 7 -22 -1 -16 -9 -23 -9 -26 0 -2 6 -8 11 -13 11 -5 0 -9
-34 -9 -75z"/>
<path d="M14612 1957 c-29 -31 -29 -77 1 -105 13 -12 32 -22 43 -22 25 0 62
26 51 36 -4 4 -13 2 -19 -4 -25 -25 -78 -8 -78 25 0 9 17 13 56 13 53 0 55 1
48 23 -17 58 -65 74 -102 34z m78 -17 c10 -19 8 -20 -35 -20 -46 0 -54 7 -33
28 19 19 56 14 68 -8z"/>
<path d="M13020 1845 c0 -8 7 -15 15 -15 8 0 15 7 15 15 0 8 -7 15 -15 15 -8
0 -15 -7 -15 -15z"/>
<path d="M14750 1845 c0 -8 5 -15 10 -15 6 0 10 7 10 15 0 8 -4 15 -10 15 -5
0 -10 -7 -10 -15z"/>
<path d="M14810 1845 c0 -8 5 -15 10 -15 6 0 10 7 10 15 0 8 -4 15 -10 15 -5
0 -10 -7 -10 -15z"/>
<path d="M14870 1845 c0 -8 5 -15 10 -15 6 0 10 7 10 15 0 8 -4 15 -10 15 -5
0 -10 -7 -10 -15z"/>
<path d="M16220 1800 c0 -16 7 -20 35 -20 28 0 35 4 35 20 0 16 -7 20 -35 20
-28 0 -35 -4 -35 -20z"/>
<path d="M16340 1800 c0 -16 7 -20 35 -20 28 0 35 4 35 20 0 16 -7 20 -35 20
-28 0 -35 -4 -35 -20z"/>
<path d="M16720 1810 c0 -5 16 -10 35 -10 19 0 35 5 35 10 0 6 -16 10 -35 10
-19 0 -35 -4 -35 -10z"/>
<path d="M14061 1318 c-1 -21 -7 -28 -28 -31 l-28 -4 27 -2 c22 -1 27 -6 31
-33 l4 -33 1 32 c2 26 7 32 30 36 l27 4 -27 2 c-21 1 -28 7 -31 29 l-4 27 -2
-27z"/>
<path d="M13852 1278 c-12 -12 -18 -278 -6 -278 3 0 28 18 57 39 l51 39 44
-31 c24 -17 46 -35 48 -39 16 -25 24 2 22 75 l-2 82 -5 -73 -6 -74 -45 36
c-25 20 -49 36 -54 36 -5 0 -28 -16 -51 -35 -23 -19 -45 -31 -49 -28 -3 4 -6
57 -6 118 0 124 3 131 60 138 35 4 35 4 -5 5 -23 1 -46 -3 -53 -10z"/>
<path d="M8310 1243 c0 -4 12 -19 27 -35 39 -40 20 -47 -24 -8 -47 42 -58 22
-13 -25 40 -42 22 -60 -21 -19 -51 48 -45 16 7 -37 77 -79 118 -95 154 -59 27
27 25 60 -5 120 -29 58 -40 64 -31 18 l6 -33 -41 43 c-38 39 -59 52 -59 35z"/>
<path d="M9371 1236 c-26 -15 -50 -51 -51 -79 0 -26 27 -73 47 -82 10 -4 38
-11 63 -15 25 -4 54 -11 64 -15 16 -7 18 -5 13 15 -3 13 1 36 10 53 43 84 -59
171 -146 123z"/>
<path d="M8450 1232 c0 -23 48 -112 53 -99 6 16 -25 91 -42 101 -6 4 -11 3
-11 -2z"/>
<path d="M7127 1216 c-3 -8 -16 -16 -29 -19 l-23 -4 23 -2 c20 -1 22 -6 22
-66 0 -37 4 -65 10 -65 6 0 10 35 10 85 0 84 -3 98 -13 71z"/>
<path d="M7203 1220 c-17 -7 -23 -17 -22 -37 l1 -28 7 25 c5 19 13 25 36 25
25 0 31 -5 33 -26 2 -21 -7 -35 -42 -66 -26 -22 -46 -43 -46 -47 0 -3 25 -6
55 -6 30 0 55 5 55 10 0 6 -18 10 -40 10 l-41 0 41 38 c45 44 51 73 18 96 -25
18 -25 18 -55 6z"/>
<path d="M7432 1214 c-23 -16 -30 -54 -10 -54 6 0 8 3 5 6 -3 4 -2 15 4 25 13
25 56 25 64 0 8 -27 -2 -45 -46 -80 -21 -18 -39 -36 -39 -41 0 -6 25 -10 55
-10 30 0 55 5 55 10 0 6 -19 10 -42 10 l-43 0 38 35 c47 43 52 90 11 105 -31
12 -25 13 -52 -6z"/>
<path d="M7565 1205 c-17 -16 -25 -35 -25 -58 0 -40 33 -87 60 -87 27 0 60 47
60 87 0 34 -36 83 -60 83 -6 0 -22 -11 -35 -25z m63 -7 c29 -36 9 -128 -28
-128 -34 0 -56 100 -28 128 16 16 43 15 56 0z"/>
<path d="M7712 1214 c-12 -8 -22 -25 -21 -37 0 -19 2 -19 11 6 11 30 47 37 67
13 15 -18 5 -39 -43 -85 -20 -19 -36 -39 -36 -43 0 -4 23 -8 50 -8 28 0 50 5
50 10 0 6 -18 10 -40 10 l-40 0 40 36 c38 35 49 65 32 90 -13 20 -47 24 -70 8z"/>
<path d="M7839 1211 c-13 -11 -21 -23 -16 -27 4 -4 13 0 20 10 16 22 60 18 65
-6 2 -10 -7 -22 -24 -31 l-27 -14 27 -7 c28 -7 35 -33 14 -54 -17 -17 -35 -15
-58 8 -15 15 -20 16 -20 5 0 -17 30 -35 59 -35 11 0 28 11 37 25 16 24 16 27
-2 47 -14 15 -16 22 -6 25 19 7 14 51 -7 63 -27 14 -35 13 -62 -9z"/>
<path d="M8622 1214 c-23 -16 -30 -54 -10 -54 6 0 8 3 5 6 -3 4 -2 15 4 25 13
25 56 25 64 0 8 -27 -2 -45 -46 -80 -21 -18 -39 -36 -39 -41 0 -6 25 -10 55
-10 30 0 55 5 55 10 0 6 -19 10 -42 10 l-43 0 38 35 c47 43 52 90 11 105 -31
12 -25 13 -52 -6z"/>
<path d="M8900 1222 c-43 -13 -56 -106 -20 -142 25 -25 41 -25 69 -2 16 12 22
29 23 58 1 65 -28 99 -72 86z m50 -31 c21 -40 8 -102 -25 -115 -23 -8 -55 29
-55 65 0 43 17 69 45 69 14 0 29 -8 35 -19z"/>
<path d="M9672 1214 c-12 -8 -22 -25 -21 -37 0 -19 2 -19 11 6 11 30 47 37 67
13 15 -18 5 -39 -43 -85 -20 -19 -36 -39 -36 -43 0 -4 23 -8 50 -8 28 0 50 5
50 10 0 6 -18 10 -40 10 l-40 0 40 36 c38 35 49 65 32 90 -13 20 -47 24 -70 8z"/>
<path d="M6632 1138 l2 -83 3 68 c2 37 8 67 12 67 5 0 28 -29 51 -65 23 -36
46 -65 51 -65 5 0 9 36 9 80 0 94 -18 108 -22 18 l-3 -63 -43 63 c-23 34 -47
62 -52 62 -6 0 -9 -35 -8 -82z"/>
<path d="M8720 1200 c0 -11 5 -20 10 -20 6 0 10 7 10 15 0 11 11 15 39 15 l38
0 -23 -47 c-13 -25 -24 -60 -23 -77 l1 -31 10 35 c5 19 20 56 33 83 l25 47
-60 0 c-53 0 -60 -2 -60 -20z"/>
<path d="M6807 1162 c-38 -42 -5 -111 48 -98 34 9 50 49 33 84 -16 34 -57 41
-81 14z m62 -6 c17 -20 10 -67 -11 -80 -23 -14 -50 12 -50 49 0 41 38 59 61
31z"/>
<path d="M6920 1175 c0 -18 38 -109 46 -112 5 -2 19 24 31 57 12 33 18 60 14
60 -4 0 -14 -18 -21 -41 -18 -54 -26 -56 -40 -12 -12 38 -30 66 -30 48z"/>
<path d="M14695 1167 c-20 -16 -15 -44 11 -54 23 -9 51 23 38 44 -14 23 -27
26 -49 10z"/>
<path d="M14796 1167 c-15 -11 -17 -17 -7 -35 14 -26 33 -28 52 -6 9 11 10 20
3 32 -14 22 -27 24 -48 9z"/>
<path d="M14896 1165 c-12 -12 -13 -21 -6 -36 13 -23 33 -25 51 -3 9 11 10 20
3 32 -15 23 -29 25 -48 7z"/>
<path d="M7310 1073 c0 -5 5 -15 10 -23 8 -12 10 -11 10 8 0 12 -4 22 -10 22
-5 0 -10 -3 -10 -7z"/>
</g>
</svg>
